<svg width="70" height="70" viewBox="0 0 70 70" fill="none" xmlns="http://www.w3.org/2000/svg">
<g clip-path="url(#clip0)">
<path d="M35 70C54.33 70 70 54.33 70 35C70 15.67 54.33 0 35 0C15.67 0 0 15.67 0 35C0 54.33 15.67 70 35 70Z" fill="#008DE4"/>
<path d="M42.4832 15.397H24.9014L23.445 23.5414L39.3176 23.5637C47.135 23.5637 49.446 26.4023 49.3792 31.1062C49.342 33.5212 48.3017 37.6009 47.8484 38.9236C46.6445 42.4459 44.17 46.4735 34.8961 46.4586L19.462 46.4512L17.998 54.603H35.5426C41.7327 54.603 44.3632 53.8822 47.1499 52.5966C53.3324 49.7431 57.0108 43.6423 58.4821 35.6837C60.6817 23.8312 57.9471 15.397 42.4832 15.397Z" fill="white"/>
<path d="M17.3072 30.9055C12.6999 30.9055 12.0386 33.9077 11.6076 35.7208C11.0354 38.0987 10.8496 39.0573 10.8496 39.0573H28.8549C33.4622 39.0573 34.1235 36.0552 34.5545 34.2421C35.1267 31.8641 35.3125 30.9055 35.3125 30.9055H17.3072Z" fill="white"/>
</g>
<defs>
<clipPath id="clip0">
<rect width="70" height="70" fill="white"/>
</clipPath>
</defs>
</svg>
