<svg width="70" height="70" viewBox="0 0 70 70" fill="none" xmlns="http://www.w3.org/2000/svg">
<path d="M35 0C54.3291 0 70 15.6709 70 35C70 54.3291 54.3284 70 35 70C15.6716 70 0 54.3333 0 35C0 15.6667 15.6688 0 35 0Z" fill="#53AE94"/>
<path d="M24.8274 14.7574H21.8929V17.1718H25.3018V17.9064H21V11.0936H25.2553V11.8329H21.8929V14.0227H24.8274V14.7574Z" fill="white"/>
<path d="M29.1824 15.1504H27.5919V17.9064H26.6944V11.0936H28.9359C29.6986 11.0936 30.2846 11.2683 30.6938 11.6176C31.1062 11.967 31.3124 12.4755 31.3124 13.143C31.3124 13.5673 31.1977 13.9369 30.9682 14.252C30.7419 14.5671 30.4257 14.8026 30.0195 14.9586L31.61 17.8503V17.9064H30.652L29.1824 15.1504ZM27.5919 14.4158H28.9638C29.4072 14.4158 29.7591 14.3004 30.0195 14.0695C30.283 13.8387 30.4148 13.5299 30.4148 13.143C30.4148 12.7219 30.2892 12.3991 30.0381 12.1745C29.7901 11.9499 29.4304 11.836 28.9592 11.8329H27.5919V14.4158Z" fill="white"/>
<path d="M37.8345 15.7447C37.7508 16.4652 37.4857 17.0221 37.0393 17.4151C36.5959 17.805 36.0053 18 35.2674 18C34.4675 18 33.8257 17.7115 33.3421 17.1344C32.8615 16.5573 32.6212 15.7852 32.6212 14.8182V14.1631C32.6212 13.5299 32.7328 12.973 32.9561 12.4926C33.1824 12.0123 33.5017 11.6442 33.9141 11.3884C34.3264 11.1295 34.8039 11 35.3465 11C36.0658 11 36.6424 11.2028 37.0765 11.6083C37.5105 12.0107 37.7632 12.5691 37.8345 13.2834H36.937C36.8595 12.7406 36.6905 12.3476 36.4301 12.1043C36.1727 11.861 35.8115 11.7393 35.3465 11.7393C34.776 11.7393 34.328 11.9514 34.0025 12.3757C33.68 12.7999 33.5188 13.4035 33.5188 14.1865V14.8463C33.5188 15.5856 33.6723 16.1736 33.9792 16.6103C34.2861 17.047 34.7155 17.2654 35.2674 17.2654C35.7635 17.2654 36.1433 17.1531 36.4068 16.9285C36.6734 16.7008 36.8502 16.3061 36.937 15.7447H37.8345Z" fill="white"/>
<path d="M43.5568 17.9064H39.1201V17.2841L41.464 14.6638C41.8113 14.2676 42.05 13.9463 42.1802 13.6999C42.3135 13.4503 42.3802 13.193 42.3802 12.9278C42.3802 12.5722 42.2732 12.2805 42.0593 12.0528C41.8454 11.8251 41.5601 11.7112 41.2036 11.7112C40.7757 11.7112 40.4424 11.8344 40.2037 12.0809C39.9681 12.3242 39.8503 12.6642 39.8503 13.1009H38.9899C38.9899 12.4739 39.1899 11.967 39.5898 11.5802C39.9929 11.1934 40.5308 11 41.2036 11C41.833 11 42.3306 11.1669 42.6964 11.5007C43.0623 11.8313 43.2452 12.2727 43.2452 12.8249C43.2452 13.4955 42.8204 14.2941 41.9709 15.2206L40.1572 17.1999H43.5568V17.9064Z" fill="white"/>
<path d="M49 15.0007C49 16.0145 48.8279 16.7678 48.4838 17.2607C48.1396 17.7536 47.6017 18 46.87 18C46.1476 18 45.6128 17.7598 45.2656 17.2794C44.9183 16.7959 44.7385 16.0753 44.7261 15.1176V13.9619C44.7261 12.9606 44.8982 12.2166 45.2423 11.7299C45.5865 11.2433 46.1259 11 46.8607 11C47.5893 11 48.1257 11.2355 48.4698 11.7066C48.814 12.1745 48.9907 12.8982 49 13.8777V15.0007ZM48.1396 13.8168C48.1396 13.0838 48.0373 12.5504 47.8327 12.2166C47.6281 11.8797 47.3041 11.7112 46.8607 11.7112C46.4205 11.7112 46.0996 11.8781 45.8981 12.2119C45.6965 12.5457 45.5927 13.0588 45.5865 13.7513V15.1364C45.5865 15.8725 45.6919 16.4169 45.9027 16.7694C46.1166 17.1188 46.4391 17.2934 46.87 17.2934C47.2948 17.2934 47.6095 17.1281 47.8141 16.7975C48.0218 16.4668 48.1303 15.9459 48.1396 15.2346V13.8168Z" fill="white"/>
<path d="M39.319 33.3321V28.1255H51.2253V20.1924H18.8041V28.1255H30.7118V33.3279C21.0343 33.7724 13.7578 35.689 13.7578 37.985C13.7578 40.281 21.0378 42.1976 30.7118 42.6449V59.3224H39.3218V42.6435C48.9818 42.1976 56.2436 40.2824 56.2436 37.9885C56.2436 35.6946 48.9818 33.7794 39.3218 33.3335L39.319 33.3321ZM39.3218 41.2309V41.2267C39.0789 41.2421 37.8308 41.317 35.0518 41.317C32.83 41.317 31.2669 41.254 30.716 41.2253V41.2323C22.1662 40.8536 15.7843 39.3647 15.7843 37.5832C15.7843 35.8017 22.1669 34.3149 30.716 33.9355V39.749C31.276 39.7875 32.8776 39.882 35.0882 39.882C37.7433 39.882 39.0782 39.7714 39.3232 39.749V33.9355C47.8562 34.3156 54.2234 35.8059 54.2234 37.5811C54.2234 39.3563 47.8534 40.8473 39.3232 41.2274" fill="white"/>
</svg>
