<svg width="70" height="70" viewBox="0 0 70 70" fill="none" xmlns="http://www.w3.org/2000/svg">
<path d="M35 0C54.3291 0 70 15.6709 70 35C70 54.3291 54.3284 70 35 70C15.6716 70 0 54.3333 0 35C0 15.6667 15.6688 0 35 0Z" fill="#53AE94"/>
<path d="M39.319 33.3321V28.1255H51.2253V20.1924H18.8041V28.1255H30.7118V33.3279C21.0343 33.7724 13.7578 35.689 13.7578 37.985C13.7578 40.281 21.0378 42.1976 30.7118 42.6449V59.3224H39.3218V42.6435C48.9818 42.1976 56.2436 40.2824 56.2436 37.9885C56.2436 35.6946 48.9818 33.7794 39.3218 33.3335L39.319 33.3321ZM39.3218 41.2309V41.2267C39.0789 41.2421 37.8308 41.317 35.0518 41.317C32.83 41.317 31.2669 41.254 30.716 41.2253V41.2323C22.1662 40.8536 15.7843 39.3647 15.7843 37.5832C15.7843 35.8017 22.1669 34.3149 30.716 33.9355V39.749C31.276 39.7875 32.8776 39.882 35.0882 39.882C37.7433 39.882 39.0782 39.7714 39.3232 39.749V33.9355C47.8562 34.3156 54.2234 35.8059 54.2234 37.5811C54.2234 39.3563 47.8534 40.8473 39.3232 41.2274" fill="white"/>
<path d="M25.4495 11.8329H23.1845V17.9064H22.2601V11.8329H20V11.0936H25.4495V11.8329Z" fill="white"/>
<path d="M29.3766 15.1504H27.7214V17.9064H26.7874V11.0936H29.1201C29.9138 11.0936 30.5236 11.2683 30.9495 11.6176C31.3786 11.967 31.5932 12.4755 31.5932 13.143C31.5932 13.5673 31.4738 13.9369 31.235 14.252C30.9995 14.5671 30.6704 14.8026 30.2477 14.9586L31.9029 17.8503V17.9064H30.9059L29.3766 15.1504ZM27.7214 14.4158H29.1491C29.6105 14.4158 29.9767 14.3004 30.2477 14.0695C30.522 13.8387 30.6591 13.5299 30.6591 13.143C30.6591 12.7219 30.5284 12.3991 30.2671 12.1745C30.009 11.9499 29.6347 11.836 29.1443 11.8329H27.7214V14.4158Z" fill="white"/>
<path d="M38.3805 15.7447C38.2934 16.4652 38.0175 17.0221 37.5529 17.4151C37.0915 17.805 36.4769 18 35.709 18C34.8766 18 34.2087 17.7115 33.7054 17.1344C33.2053 16.5573 32.9552 15.7852 32.9552 14.8182V14.1631C32.9552 13.5299 33.0714 12.973 33.3037 12.4926C33.5392 12.0123 33.8715 11.6442 34.3007 11.3884C34.7298 11.1295 35.2267 11 35.7913 11C36.5398 11 37.1399 11.2028 37.5916 11.6083C38.0434 12.0107 38.3063 12.5691 38.3805 13.2834H37.4465C37.3658 12.7406 37.19 12.3476 36.9189 12.1043C36.6511 11.861 36.2753 11.7393 35.7913 11.7393C35.1976 11.7393 34.7314 11.9514 34.3926 12.3757C34.0571 12.7999 33.8893 13.4035 33.8893 14.1865V14.8463C33.8893 15.5856 34.049 16.1736 34.3684 16.6103C34.6878 17.047 35.1347 17.2654 35.709 17.2654C36.2252 17.2654 36.6205 17.1531 36.8947 16.9285C37.1722 16.7008 37.3561 16.3061 37.4465 15.7447H38.3805Z" fill="white"/>
<path d="M44.3354 17.9064H39.7184V17.2841L42.1576 14.6638C42.519 14.2676 42.7674 13.9463 42.9029 13.6999C43.0416 13.4503 43.111 13.193 43.111 12.9278C43.111 12.5722 42.9997 12.2805 42.7771 12.0528C42.5544 11.8251 42.2576 11.7112 41.8866 11.7112C41.4413 11.7112 41.0945 11.8344 40.846 12.0809C40.6008 12.3242 40.4782 12.6642 40.4782 13.1009H39.5829C39.5829 12.4739 39.791 11.967 40.2072 11.5802C40.6266 11.1934 41.1864 11 41.8866 11C42.5415 11 43.0594 11.1669 43.4401 11.5007C43.8208 11.8313 44.0112 12.2727 44.0112 12.8249C44.0112 13.4955 43.5692 14.2941 42.6851 15.2206L40.7976 17.1999H44.3354V17.9064Z" fill="white"/>
<path d="M50 15.0007C50 16.0145 49.8209 16.7678 49.4628 17.2607C49.1047 17.7536 48.5449 18 47.7834 18C47.0317 18 46.4751 17.7598 46.1137 17.2794C45.7524 16.7959 45.5652 16.0753 45.5523 15.1176V13.9619C45.5523 12.9606 45.7314 12.2166 46.0895 11.7299C46.4477 11.2433 47.0091 11 47.7737 11C48.532 11 49.0901 11.2355 49.4483 11.7066C49.8064 12.1745 49.9903 12.8982 50 13.8777V15.0007ZM49.1047 13.8168C49.1047 13.0838 48.9982 12.5504 48.7852 12.2166C48.5723 11.8797 48.2351 11.7112 47.7737 11.7112C47.3156 11.7112 46.9817 11.8781 46.7719 12.2119C46.5622 12.5457 46.4541 13.0588 46.4477 13.7513V15.1364C46.4477 15.8725 46.5574 16.4169 46.7768 16.7694C46.9994 17.1188 47.335 17.2934 47.7834 17.2934C48.2255 17.2934 48.5529 17.1281 48.7659 16.7975C48.9821 16.4668 49.095 15.9459 49.1047 15.2346V13.8168Z" fill="white"/>
</svg>
