<svg width="43" height="43" viewBox="0 0 43 43" fill="none" xmlns="http://www.w3.org/2000/svg">
<g clip-path="url(#clip0)">
<path d="M42.3526 26.7014C39.481 38.2193 27.8146 45.2283 16.2953 42.3567C4.78136 39.4851 -2.22832 27.8187 0.643951 16.3014C3.5142 4.78213 15.18 -2.22821 26.6959 0.643384C38.2145 3.51498 45.2235 15.1828 42.3519 26.7014H42.3526Z" fill="#F7931A"/>
<path d="M30.9798 18.4367C31.4071 15.5759 29.2289 14.038 26.2505 13.012L27.2166 9.13663L24.857 8.54874L23.9164 12.322C23.2969 12.1675 22.66 12.0217 22.0271 11.8772L22.9744 8.0791L20.6168 7.49121L19.65 11.3652C19.1367 11.2483 18.6328 11.1328 18.1436 11.0112L18.1463 10.9991L14.8931 10.1868L14.2656 12.7063C14.2656 12.7063 16.0158 13.1074 15.9789 13.1323C16.9343 13.3708 17.1076 14.003 17.0781 14.5042L15.9775 18.9191C16.0434 18.9359 16.1287 18.9601 16.2228 18.9977L15.9742 18.9359L14.4309 25.1205C14.314 25.4108 14.0177 25.8462 13.3498 25.6809C13.3733 25.7152 11.6352 25.2529 11.6352 25.2529L10.4641 27.9538L13.5346 28.7191C14.1057 28.8622 14.6653 29.012 15.2156 29.1531L14.2394 33.0735L16.5956 33.6614L17.5631 29.7834C18.2061 29.958 18.831 30.1193 19.4424 30.2711L18.4789 34.1311L20.8379 34.7189L21.8141 30.8066C25.8366 31.5679 28.8621 31.2608 30.1339 27.6233C31.1599 24.6939 30.0835 23.0041 27.9671 21.9016C29.5084 21.5448 30.6694 20.531 30.9791 18.4367H30.9798ZM25.5894 25.9946C24.8597 28.924 19.9281 27.3411 18.3284 26.9433L19.6238 21.7504C21.2228 22.1495 26.3499 22.9396 25.59 25.9946H25.5894ZM26.3183 18.3944C25.6532 21.0591 21.548 19.7052 20.2157 19.3733L21.3901 14.6635C22.7225 14.9954 27.0117 15.6149 26.3183 18.3944Z" fill="white"/>
</g>
<defs>
<clipPath id="clip0">
<rect width="43" height="43" fill="white"/>
</clipPath>
</defs>
</svg>
