<svg width="43" height="43" viewBox="0 0 43 43" fill="none" xmlns="http://www.w3.org/2000/svg">
<path fill-rule="evenodd" clip-rule="evenodd" d="M21.5002 2.3916C24.1491 2.3916 26.772 2.90251 29.2192 3.89515C31.6664 4.88779 33.89 6.34273 35.763 8.1769C37.636 10.0111 39.1218 12.1885 40.1354 14.585C41.1491 16.9814 41.6708 19.5499 41.6708 22.1438C41.6708 26.0505 40.4878 29.8694 38.2715 33.1176C36.0551 36.3658 32.9049 38.8975 29.2192 40.3925C25.5335 41.8875 21.4778 42.2787 17.5651 41.5166C13.6524 40.7544 10.0583 38.8732 7.23743 36.1108C4.41652 33.3484 2.49546 29.8289 1.71717 25.9973C0.938884 22.1658 1.33833 18.1942 2.865 14.585C4.39166 10.9757 6.97698 7.89086 10.294 5.72045C13.6111 3.55005 17.5108 2.3916 21.5002 2.3916Z" fill="#F01010"/>
<path fill-rule="evenodd" clip-rule="evenodd" d="M20.6414 15.7406H19.7714H18.9326C18.6528 15.7096 18.311 15.7096 17.9697 15.6796C17.8769 15.7096 17.8447 15.802 17.8137 15.9233C17.7829 16.0453 17.8137 16.1366 17.8769 16.2276L18.2495 16.2583C18.7146 16.3486 19.0562 16.44 19.275 16.5321C19.4915 16.6532 19.6464 16.8664 19.7095 17.1407C19.7714 17.4143 19.8022 17.7788 19.7714 18.2358C19.7397 18.8745 19.7095 19.6346 19.6784 20.517C19.6464 21.4004 19.5849 22.3131 19.5223 23.2564C19.4608 24.7154 19.327 28.2699 18.9222 29.3224C18.8282 29.5656 18.6735 29.7181 18.4868 29.8107C18.2686 29.9008 18.0194 29.9922 17.7088 30.0237L17.2102 30.0844C17.1175 30.1446 17.0859 30.237 17.1175 30.3891C17.1175 30.4805 17.1483 30.5711 17.2416 30.663C17.6458 30.6329 18.0194 30.6021 18.4239 30.5711H19.6072H20.8826C21.3488 30.6021 21.7537 30.6329 22.1268 30.663C22.2207 30.6021 22.2827 30.5109 22.2827 30.3891C22.2827 30.2663 22.2517 30.1756 22.1576 30.0844L21.287 30.0237C21.0065 29.9922 20.7887 29.9317 20.6335 29.8107C20.5555 29.7487 20.4929 29.6641 20.4461 29.5605C20.2625 29.1281 20.2588 28.3962 20.2683 27.9419C20.2881 26.9985 20.2999 26.0557 20.3304 25.1124C20.3617 24.1691 20.3926 23.3469 20.4232 22.6475C20.4536 22.0086 20.5173 21.3384 20.5476 20.6693C20.5788 20.0006 20.6093 19.3305 20.6414 18.6614H20.703C20.952 19.1782 21.2009 19.6959 21.4182 20.2737C21.6671 20.8217 21.9153 21.3696 22.1633 21.8873L24.2453 26.237C24.4327 26.6032 24.6498 27.0598 24.8976 27.6072C25.1779 28.1852 25.4566 28.7325 25.706 29.2799C25.8372 29.5698 25.951 29.8421 26.0476 30.0971C26.0724 30.0971 26.2467 30.6579 26.266 30.7231C26.3857 30.8421 26.5818 30.8389 26.7017 30.7231C26.8948 30.2697 27.0966 29.8112 27.3214 29.3722C27.9098 28.0785 28.5236 26.8432 29.2169 25.5991L31.2367 21.6741C31.3923 21.3384 31.5471 20.9736 31.7647 20.5783C31.9824 20.1525 32.1994 19.7569 32.3866 19.4224C32.5415 19.057 32.6656 18.8138 32.7271 18.7222H32.7588L32.8215 28.1253C32.8517 28.6114 32.8215 28.9753 32.7903 29.2491C32.7654 29.4669 32.703 29.6738 32.4892 29.7799C32.3642 29.9317 32.1156 29.9922 31.7113 30.0237L31.0264 30.0844C30.9642 30.1446 30.9334 30.237 30.9642 30.3891C30.9642 30.4805 30.9958 30.5711 31.0893 30.663C31.5553 30.6329 32.0525 30.6021 32.5195 30.5711H33.8895H35.1965C35.6625 30.6021 36.1291 30.6329 36.5969 30.663C36.6904 30.6021 36.7208 30.5109 36.7208 30.3891C36.7519 30.2663 36.7208 30.1756 36.6588 30.0844L35.9121 30.0237C35.5695 29.9922 35.3208 29.9008 35.1643 29.7484C35.0103 29.5967 34.8855 29.4137 34.8543 29.1697C34.8226 28.8963 34.7913 28.5598 34.7913 28.1947C34.7276 27.0628 34.6846 25.9125 34.6544 24.7779C34.6229 23.5598 34.5605 22.4043 34.5302 21.3099V18.4181C34.5302 17.9012 34.5605 17.5054 34.6229 17.2007C34.686 16.9276 34.8411 16.6843 35.0582 16.5321C35.2762 16.4106 35.6483 16.3186 36.1454 16.2583L36.6119 16.2276C36.6747 16.1665 36.705 16.0755 36.6747 15.9233C36.6747 15.8314 36.6431 15.7406 36.5813 15.6796C36.208 15.7096 35.8349 15.7096 35.4934 15.7406H34.5302H33.8159C33.5355 15.7096 33.2244 15.7096 32.8215 15.6796C32.7903 16.1961 32.6039 16.7754 32.324 17.4447C31.9824 18.1434 31.579 18.9967 31.0818 20.0006L28.9062 24.2902C28.342 25.4583 27.8282 26.5696 27.1371 27.6772H27.075C26.525 26.661 26.0182 25.6065 25.5194 24.5649L22.8787 19.3916C22.5373 18.6614 22.2262 17.962 21.9778 17.323C21.7599 16.6843 21.6671 16.1366 21.6979 15.6796C21.3253 15.7096 20.9831 15.7096 20.6414 15.7406ZM7.89188 27.3069C7.89188 28.082 7.86061 28.6718 7.7973 29.0756C7.73466 29.8578 7.20754 30.1142 6.46424 30.1644L5.98808 30.2262C5.83469 30.3768 5.84649 30.703 6.02102 30.816C7.00278 30.7566 7.89072 30.7224 8.87568 30.7224C9.926 30.7224 10.9051 30.7678 11.9523 30.816C12.0155 30.7539 12.0483 30.6609 12.0798 30.5368C12.0798 30.3818 12.0483 30.2877 11.9845 30.2262L11.3499 30.1644C10.8423 30.1322 10.4936 30.039 10.3033 29.8836C10.2919 29.8756 10.2805 29.8673 10.2694 29.8588C10.0774 29.7026 9.94019 29.4641 9.88241 29.0949C9.81949 28.6917 9.78762 28.1027 9.81949 27.3287V25.1559C9.12243 25.1872 8.48899 25.1559 7.91839 25.0629L7.89188 27.3069ZM5.8592 15.9751C5.82795 16.0988 5.89163 16.1916 5.98657 16.2854L6.81032 16.3771C7.1584 16.4091 7.41215 16.5018 7.57022 16.6572C7.72837 16.7807 7.824 16.9984 7.85504 17.3396C7.88727 17.6803 7.91839 18.1777 7.91839 18.8278V23.4187C8.5521 23.4504 9.18529 23.4504 9.81949 23.4187V17.0909C9.78762 16.8431 9.81949 16.6572 9.88241 16.5018C9.91394 16.4091 10.0408 16.3152 10.199 16.2854C10.3889 16.2541 10.7064 16.2541 11.1179 16.2541C12.3213 16.2854 13.2399 16.5947 13.9051 17.2463C14.5387 17.8971 14.8551 18.7971 14.8551 19.9145C14.8879 20.9066 14.6342 21.7442 14.0955 22.426C13.6203 23.0165 12.9236 23.4504 11.9728 23.667C11.0548 23.8843 9.7563 23.9777 8.01368 23.9458C6.49286 23.9164 4.84599 23.8227 3.04053 23.6367C5.03657 24.04 6.52474 24.3186 7.47584 24.4115C9.027 24.5986 10.5473 24.5666 11.9728 24.3502C12.7013 24.2563 13.3668 24.0711 13.9688 23.8537C14.5387 23.6058 15.1092 23.2647 15.7111 22.8611C16.0593 22.6129 16.3759 22.2085 16.6615 21.682C16.8835 21.186 17.0099 20.5965 17.0411 19.8825C17.0099 19.1069 16.8197 18.426 16.4716 17.8355C16.123 17.2463 15.7111 16.7807 15.1723 16.4407C14.6342 16.1301 13.9688 15.8808 13.2086 15.7258C12.48 15.6023 11.6245 15.54 10.6429 15.54C9.69212 15.54 8.83713 15.54 8.07707 15.5707C7.3168 15.6023 6.62002 15.6331 6.01747 15.6949C5.92294 15.7578 5.8592 15.8506 5.8592 15.9751Z" fill="white"/>
</svg>
