<svg width="43" height="43" viewBox="0 0 43 43" fill="none" xmlns="http://www.w3.org/2000/svg">
<path d="M21.5 0C33.3736 0 43 9.62641 43 21.5C43 33.3736 33.3732 43 21.5 43C9.62684 43 0 33.3762 0 21.5C0 9.62383 9.62512 0 21.5 0Z" fill="#53AE94"/>
<path d="M24.1533 18.6321V15.4337H31.4672V10.5605H11.5513V15.4337H18.866V18.6295C12.9213 18.9025 8.45142 20.0799 8.45142 21.4903C8.45142 22.9007 12.9234 24.078 18.866 24.3528V34.5975H24.155V24.3519C30.089 24.078 34.5498 22.9015 34.5498 21.4924C34.5498 20.0833 30.089 18.9068 24.155 18.6329L24.1533 18.6321ZM24.155 23.4842V23.4816C24.0058 23.4911 23.2391 23.5371 21.532 23.5371C20.1672 23.5371 19.207 23.4984 18.8686 23.4808V23.4851C13.6166 23.2524 9.69627 22.3378 9.69627 21.2435C9.69627 20.1491 13.617 19.2358 18.8686 19.0027V22.5739C19.2126 22.5975 20.1964 22.6556 21.5544 22.6556C23.1854 22.6556 24.0054 22.5876 24.1559 22.5739V19.0027C29.3976 19.2362 33.3089 20.1517 33.3089 21.2422C33.3089 22.3327 29.3959 23.2486 24.1559 23.482" fill="white"/>
</svg>
