<svg width="21" height="21" viewBox="0 0 21 21" fill="none" xmlns="http://www.w3.org/2000/svg">
<g clip-path="url(#clip0)">
<path d="M17.9375 21H7.4375C6.23175 21 5.25 20.0192 5.25 18.8125V5.68755C5.25 4.48092 6.23175 3.50005 7.4375 3.50005H17.9375C19.1433 3.50005 20.125 4.48092 20.125 5.68755V18.8125C20.125 20.0192 19.1433 21 17.9375 21ZM7.4375 4.37505C6.71387 4.37505 6.125 4.96392 6.125 5.68755V18.8125C6.125 19.5362 6.71387 20.125 7.4375 20.125H17.9375C18.6611 20.125 19.25 19.5362 19.25 18.8125V5.68755C19.25 4.96392 18.6611 4.37505 17.9375 4.37505H7.4375Z" fill="#F4C153"/>
<path d="M3.9375 18.375H3.0625C1.85675 18.375 0.875 17.3941 0.875 16.1875V2.1875C0.875 0.980875 1.85675 0 3.0625 0H13.5625C14.7683 0 15.75 0.980875 15.75 2.1875C15.75 2.429 15.554 2.625 15.3125 2.625C15.071 2.625 14.875 2.429 14.875 2.1875C14.875 1.46387 14.2861 0.875 13.5625 0.875H3.0625C2.33887 0.875 1.75 1.46387 1.75 2.1875V16.1875C1.75 16.9111 2.33887 17.5 3.0625 17.5H3.9375C4.179 17.5 4.375 17.696 4.375 17.9375C4.375 18.179 4.179 18.375 3.9375 18.375Z" fill="#F4C153"/>
<path d="M16.1895 14.8751H9.18945C8.94795 14.8751 8.75195 14.6791 8.75195 14.4376C8.75195 14.1961 8.94795 14.0001 9.18945 14.0001H16.1895C16.431 14.0001 16.627 14.1961 16.627 14.4376C16.627 14.6791 16.431 14.8751 16.1895 14.8751Z" fill="#F4C153"/>
<path d="M16.1895 18.3751H9.18945C8.94795 18.3751 8.75195 18.1791 8.75195 17.9376C8.75195 17.6961 8.94795 17.5001 9.18945 17.5001H16.1895C16.431 17.5001 16.627 17.6961 16.627 17.9376C16.627 18.1791 16.431 18.3751 16.1895 18.3751Z" fill="#F4C153"/>
<path d="M16.1895 11.3751H9.18945C8.94795 11.3751 8.75195 11.1791 8.75195 10.9376C8.75195 10.6961 8.94795 10.5001 9.18945 10.5001H16.1895C16.431 10.5001 16.627 10.6961 16.627 10.9376C16.627 11.1791 16.431 11.3751 16.1895 11.3751Z" fill="#F4C153"/>
<path d="M16.1895 7.87503H9.18945C8.94795 7.87503 8.75195 7.67903 8.75195 7.43753C8.75195 7.19603 8.94795 7.00003 9.18945 7.00003H16.1895C16.431 7.00003 16.627 7.19603 16.627 7.43753C16.627 7.67903 16.431 7.87503 16.1895 7.87503Z" fill="#F4C153"/>
</g>
<defs>
<clipPath id="clip0">
<rect width="21" height="21" fill="white"/>
</clipPath>
</defs>
</svg>
