<svg width="23" height="23" viewBox="0 0 23 23" fill="none" xmlns="http://www.w3.org/2000/svg">
<path d="M2.15723 8.62503H18.2419L16.4886 10.3783C16.2864 10.5805 16.1728 10.8547 16.1728 11.1407C16.1728 11.4266 16.2864 11.7008 16.4886 11.903C16.6908 12.1052 16.965 12.2188 17.251 12.2188C17.5369 12.2188 17.8112 12.1052 18.0133 11.903L21.6071 8.30927C21.7072 8.20916 21.7866 8.0903 21.8408 7.9595C21.895 7.82869 21.9229 7.68849 21.9229 7.5469C21.9229 7.40532 21.895 7.26512 21.8408 7.13431C21.7866 7.0035 21.7072 6.88465 21.6071 6.78453L18.0133 3.19078C17.8112 2.98859 17.5369 2.875 17.251 2.875C16.965 2.875 16.6908 2.98859 16.4886 3.19078C16.2864 3.39298 16.1728 3.66721 16.1728 3.95315C16.1728 4.2391 16.2864 4.51333 16.4886 4.71552L18.2419 6.46878H2.15723C1.87129 6.46878 1.59706 6.58237 1.39488 6.78455C1.19269 6.98674 1.0791 7.26097 1.0791 7.5469C1.0791 7.83284 1.19269 8.10707 1.39488 8.30925C1.59706 8.51144 1.87129 8.62503 2.15723 8.62503Z" fill="#B5B5B5"/>
<path d="M20.8438 14.375H4.75911L6.51241 12.6218C6.7146 12.4196 6.82819 12.1453 6.82819 11.8594C6.82819 11.5735 6.7146 11.2992 6.51241 11.097C6.31021 10.8948 6.03598 10.7813 5.75004 10.7813C5.46409 10.7812 5.18986 10.8948 4.98767 11.097L1.39392 14.6908C1.2938 14.7909 1.21438 14.9098 1.1602 15.0406C1.10601 15.1714 1.07812 15.3116 1.07812 15.4532C1.07813 15.5947 1.10601 15.7349 1.1602 15.8658C1.21438 15.9966 1.2938 16.1154 1.39392 16.2155L4.98767 19.8093C5.18986 20.0115 5.46409 20.1251 5.75004 20.1251C6.03598 20.1251 6.31021 20.0115 6.51241 19.8093C6.7146 19.6071 6.82819 19.3329 6.82819 19.0469C6.82819 18.761 6.7146 18.4867 6.51241 18.2845L4.75911 16.5313H20.8438C21.1297 16.5313 21.4039 16.4177 21.6061 16.2155C21.8083 16.0133 21.9219 15.7391 21.9219 15.4532C21.9219 15.1672 21.8083 14.893 21.6061 14.6908C21.4039 14.4886 21.1297 14.375 20.8438 14.375Z" fill="#B5B5B5"/>
</svg>
