<svg xmlns="http://www.w3.org/2000/svg" xmlns:xlink="http://www.w3.org/1999/xlink">
    <symbol id="dashboard" viewBox="0 0 26 22" fill="" xmlns="http://www.w3.org/2000/svg">
		<path d="M24.1719 0.435547H1.82812C1.45115 0.435964 1.08973 0.585902 0.823168 0.852465C0.556605 1.11903 0.406667 1.48045 0.40625 1.85742V16.8887C0.406667 17.2656 0.556605 17.6271 0.823168 17.8936C1.08973 18.1602 1.45115 18.3101 1.82812 18.3105H10.0669L9.82312 19.5293H8.125C8.01726 19.5293 7.91392 19.5721 7.83774 19.6483C7.76155 19.7245 7.71875 19.8278 7.71875 19.9355V21.1543C7.71875 21.262 7.76155 21.3654 7.83774 21.4416C7.91392 21.5177 8.01726 21.5605 8.125 21.5605H17.875C17.9827 21.5605 18.0861 21.5177 18.1623 21.4416C18.2384 21.3654 18.2812 21.262 18.2812 21.1543V19.9355C18.2812 19.8278 18.2384 19.7245 18.1623 19.6483C18.0861 19.5721 17.9827 19.5293 17.875 19.5293H16.1769L15.9331 18.3105H24.1719C24.5489 18.3101 24.9103 18.1602 25.1768 17.8936C25.4434 17.6271 25.5933 17.2656 25.5938 16.8887V1.85742C25.5933 1.48045 25.4434 1.11903 25.1768 0.852465C24.9103 0.585902 24.5489 0.435964 24.1719 0.435547ZM17.4688 20.3418V20.748H8.53125V20.3418H17.4688ZM10.6519 19.5293L10.8956 18.3105H15.1044L15.3481 19.5293H10.6519ZM24.7812 16.8887C24.7811 17.0502 24.7169 17.2052 24.6026 17.3194C24.4884 17.4337 24.3335 17.4979 24.1719 17.498H1.82812C1.66655 17.4979 1.51163 17.4337 1.39738 17.3194C1.28313 17.2052 1.21888 17.0502 1.21875 16.8887V15.873H24.7812V16.8887ZM24.7812 15.0605H1.21875V1.85742C1.21888 1.69585 1.28313 1.54093 1.39738 1.42668C1.51163 1.31243 1.66655 1.24818 1.82812 1.24805H24.1719C24.3335 1.24818 24.4884 1.31243 24.6026 1.42668C24.7169 1.54093 24.7811 1.69585 24.7812 1.85742V15.0605Z" fill=""/>
    </symbol>
    <symbol id="token_sale" viewBox="0 0 26 27" fill="" xmlns="http://www.w3.org/2000/svg">
		<g clip-path="url(#clip0)">
		<path d="M25.4574 23.7493H0.54069C0.24169 23.7493 -0.000976562 23.5067 -0.000976562 23.2077C-0.000976562 22.9087 0.24169 22.666 0.54069 22.666H25.4574C25.7564 22.666 25.999 22.9087 25.999 23.2077C25.999 23.5067 25.7564 23.7493 25.4574 23.7493Z" fill=""/>
		<path d="M7.03939 23.7484H1.62272C1.32372 23.7484 1.08105 23.5057 1.08105 23.2067V13.9984C1.08105 13.4015 1.56747 12.915 2.16439 12.915H6.49772C7.09464 12.915 7.58106 13.4015 7.58106 13.9984V23.2067C7.58106 23.5057 7.33839 23.7484 7.03939 23.7484ZM2.16439 22.665H6.49772V13.9984H2.16439V22.665Z" fill=""/>
		<path d="M15.7074 23.7477H10.2907C9.99169 23.7477 9.74902 23.5051 9.74902 23.2061V9.66439C9.74902 9.06747 10.2354 8.58105 10.8324 8.58105H15.1657C15.7626 8.58105 16.249 9.06747 16.249 9.66439V23.2061C16.249 23.5051 16.0064 23.7477 15.7074 23.7477ZM10.8324 22.6644H15.1657V9.66439H10.8324V22.6644Z" fill=""/>
		<path d="M24.3743 23.7471H18.9577C18.6587 23.7471 18.416 23.5044 18.416 23.2054V5.3304C18.416 4.73349 18.9024 4.24707 19.4993 4.24707H23.8327C24.4296 4.24707 24.916 4.73349 24.916 5.3304V23.2054C24.916 23.5044 24.6733 23.7471 24.3743 23.7471ZM19.4993 22.6637H23.8327V5.3304H19.4993V22.6637Z" fill=""/>
		</g>
		<defs>
		<clipPath id="clip0">
		<rect width="26" height="26" fill="" transform="translate(-0.000976562 0.998047)"/>
		</clipPath>
		</defs>
    </symbol>
    <symbol id="help" viewBox="0 0 26 22" fill="" xmlns="http://www.w3.org/2000/svg">
		<path d="M20.8942 8.89493C20.8942 3.98294 16.9122 0.000976562 12.0002 0.000976562C7.08825 0.000976562 3.10629 3.98294 3.10629 8.89493C1.83643 9.05305 0.635742 9.88315 0.635742 11.8102V16.4548C0.635742 18.6289 2.1576 19.4194 3.60039 19.4194H5.03331C5.30618 19.4194 5.52742 19.1982 5.52742 18.9253V9.3594C5.52742 9.08652 5.30618 8.86529 5.03331 8.86529H4.0945C4.0945 4.4991 7.63405 0.959547 12.0002 0.959547C16.3664 0.959547 19.906 4.4991 19.906 8.86529H18.9672C18.6943 8.86529 18.4731 9.08652 18.4731 9.3594V18.9105C18.4731 19.1834 18.6943 19.4046 18.9672 19.4046H19.906C19.7676 22.7992 18.1371 23.5947 14.8809 23.738V23.4069C14.8809 22.8611 14.4385 22.4187 13.8927 22.4187H10.7847C10.2389 22.4187 9.79652 22.8611 9.79652 23.4069V25.0128C9.79652 25.5586 10.2389 26.001 10.7847 26.001H13.9026C14.4484 26.001 14.8908 25.5586 14.8908 25.0128V24.7262C18.0234 24.5829 20.7311 23.9356 20.8942 19.375C22.1641 19.2169 23.3647 18.3868 23.3647 16.4597V11.8151C23.3647 9.87821 22.169 9.05305 20.8942 8.89493ZM4.5392 9.81892V18.4164H3.57569C2.84441 18.4164 1.59925 18.1595 1.59925 16.44V11.7954C1.59925 10.0907 2.82959 9.81892 3.57569 9.81892H4.5392ZM13.9026 24.2667V25.0177H10.7847V23.4118H13.9026V24.2667ZM22.3765 16.4548C22.3765 18.1595 21.1462 18.4312 20.4001 18.4312H19.4613V9.8535H20.4248C21.1561 9.8535 22.4012 10.1104 22.4012 11.8299L22.3765 16.4548Z" fill=""/>
    </symbol>
    <symbol id="materials" viewBox="0 0 24 27" fill="" xmlns="http://www.w3.org/2000/svg">
		<path d="M23.748 5.02096C23.2006 2.99296 19.1262 0.998047 11.9988 0.998047C4.87154 0.998047 0.796628 2.99296 0.249682 5.02096C0.209973 5.09045 0.180664 5.16656 0.180664 5.25259V5.48896V10.9253V11.1617V11.398V16.598V16.8344V17.0708V22.7435C0.180664 22.8201 0.200991 22.8924 0.235973 22.9567C0.794264 25.2707 5.7891 26.998 11.9988 26.998C18.1944 26.998 23.1812 25.2778 23.7579 22.9723C23.7958 22.9047 23.817 22.8267 23.817 22.7435V17.0708V16.8344V16.598V11.398V11.1617V10.9253V5.48896V5.25259C23.817 5.16656 23.7877 5.09045 23.748 5.02096ZM22.8342 17.0637C22.821 17.1209 22.8026 17.1776 22.7794 17.2353C22.7605 17.2821 22.7373 17.3289 22.7118 17.3757C22.6801 17.4338 22.6447 17.492 22.6026 17.5501C22.5714 17.5941 22.5359 17.6376 22.4991 17.6811C22.4466 17.743 22.3908 17.8049 22.3275 17.8664C22.2892 17.9037 22.2471 17.9406 22.2046 17.9779C22.127 18.0455 22.0462 18.1127 21.9559 18.1793C21.9171 18.2082 21.8755 18.236 21.8344 18.2644C21.7276 18.3382 21.616 18.4114 21.4936 18.4833C21.4614 18.5027 21.4269 18.5211 21.3934 18.54C21.2525 18.6194 21.1055 18.6984 20.9466 18.775C20.9263 18.7849 20.905 18.7943 20.8842 18.8038C20.707 18.8875 20.5216 18.9697 20.3236 19.0491C20.3179 19.0515 20.3122 19.0534 20.3066 19.0558C19.233 19.4845 17.8597 19.8452 16.2595 20.0816C16.2515 20.0825 16.2435 20.0835 16.2354 20.0849C15.9244 20.1307 15.6053 20.1714 15.2777 20.2073C15.2243 20.213 15.168 20.2168 15.1141 20.2224C14.8281 20.2522 14.5388 20.2796 14.241 20.3014C14.1048 20.3113 13.9621 20.316 13.8236 20.3246C13.5995 20.3378 13.3778 20.3524 13.148 20.3605C12.7727 20.3723 12.3898 20.3799 11.9988 20.3799C11.6079 20.3799 11.225 20.3723 10.8492 20.3591C10.6194 20.351 10.3977 20.3359 10.1736 20.3231C10.0351 20.3151 9.89237 20.3099 9.75623 20.3C9.45841 20.2782 9.1691 20.2508 8.8831 20.221C8.82921 20.2154 8.77295 20.2116 8.71954 20.2059C8.39194 20.17 8.07285 20.1288 7.76179 20.0835C7.75376 20.0825 7.74572 20.0816 7.73768 20.0802C6.1375 19.8438 4.76423 19.4831 3.69066 19.0543C3.68499 19.0524 3.67932 19.0501 3.67365 19.0477C3.47557 18.9683 3.28979 18.886 3.11299 18.8024C3.09266 18.7924 3.07092 18.783 3.05059 18.7735C2.89176 18.697 2.74474 18.6185 2.60386 18.5386C2.57077 18.5197 2.53579 18.5012 2.50365 18.4819C2.38121 18.41 2.26965 18.3367 2.16281 18.263C2.12215 18.2346 2.08008 18.2067 2.04132 18.1779C1.95103 18.1112 1.87019 18.0441 1.79266 17.9765C1.75059 17.9396 1.70805 17.9028 1.66975 17.865C1.60641 17.8035 1.55063 17.742 1.49815 17.6796C1.46128 17.6362 1.42583 17.5927 1.39463 17.5487C1.35303 17.4906 1.31757 17.4324 1.28543 17.3743C1.2599 17.3275 1.23721 17.2807 1.21783 17.2339C1.19466 17.1767 1.17623 17.1195 1.16299 17.0623C1.1455 16.9871 1.12612 16.9105 1.12612 16.8344C1.12612 16.781 1.13226 16.7276 1.14077 16.6746C1.15259 16.6032 1.14597 16.5319 1.12612 16.4643V12.9547C1.13935 12.967 1.1559 12.9788 1.16961 12.9911C1.27266 13.0819 1.37761 13.1722 1.49579 13.2592C3.27656 14.606 6.83761 15.6526 11.9988 15.6526C17.1383 15.6526 20.6904 14.6145 22.4787 13.2757C22.6215 13.1717 22.7501 13.0644 22.8711 12.9552L22.8716 12.9547V16.4643C22.8517 16.5319 22.8451 16.6032 22.8569 16.6746C22.8659 16.7276 22.8716 16.781 22.8716 16.8344C22.8716 16.9105 22.8522 16.9871 22.8342 17.0637ZM22.8716 7.28201V10.7915C22.8517 10.8591 22.8451 10.9305 22.8569 11.0019C22.8659 11.0548 22.8716 11.1083 22.8716 11.1617C22.8716 11.2378 22.8522 11.3144 22.8342 11.391C22.821 11.4482 22.8026 11.5049 22.7794 11.5626C22.7605 11.6094 22.7373 11.6562 22.7118 11.703C22.6801 11.7611 22.6447 11.8192 22.6026 11.8774C22.5714 11.9214 22.5359 11.9648 22.4991 12.0083C22.4466 12.0703 22.3908 12.1322 22.3275 12.1936C22.2892 12.231 22.2471 12.2679 22.2046 12.3052C22.127 12.3728 22.0462 12.4399 21.9559 12.5066C21.9171 12.5354 21.8755 12.5633 21.8344 12.5917C21.7276 12.6654 21.616 12.7387 21.4936 12.8106C21.4614 12.8299 21.4269 12.8484 21.3934 12.8673C21.2525 12.9467 21.1055 13.0256 20.9466 13.1022C20.9263 13.1122 20.905 13.1216 20.8842 13.1311C20.707 13.2147 20.5216 13.297 20.3236 13.3764C20.3179 13.3788 20.3122 13.3807 20.3066 13.383C19.233 13.8118 17.8597 14.1725 16.2595 14.4088C16.2515 14.4098 16.2435 14.4107 16.2354 14.4122C15.9244 14.458 15.6053 14.4987 15.2777 14.5346C15.2243 14.5403 15.168 14.544 15.1141 14.5497C14.8281 14.5795 14.5388 14.6069 14.241 14.6287C14.1048 14.6386 13.9621 14.6433 13.8236 14.6518C13.5995 14.6651 13.3778 14.6797 13.148 14.6878C12.7727 14.6996 12.3898 14.7071 11.9988 14.7071C11.6079 14.7071 11.225 14.6996 10.8492 14.6863C10.6194 14.6783 10.3977 14.6632 10.1736 14.6504C10.0351 14.6424 9.89237 14.6372 9.75623 14.6272C9.45841 14.6055 9.1691 14.5781 8.8831 14.5483C8.82921 14.5426 8.77295 14.5388 8.71954 14.5332C8.39194 14.4972 8.07285 14.4561 7.76179 14.4107C7.75376 14.4098 7.74572 14.4088 7.73768 14.4074C6.1375 14.1711 4.76423 13.8104 3.69066 13.3816C3.68499 13.3797 3.67932 13.3774 3.67365 13.375C3.47557 13.2956 3.28979 13.2133 3.11299 13.1296C3.09266 13.1197 3.07092 13.1103 3.05059 13.1008C2.89176 13.0242 2.74474 12.9458 2.60386 12.8659C2.57077 12.847 2.53579 12.8285 2.50365 12.8091C2.38121 12.7373 2.26965 12.664 2.16281 12.5903C2.12215 12.5619 2.08008 12.534 2.04132 12.5052C1.95103 12.4385 1.87019 12.3714 1.79266 12.3038C1.75059 12.2669 1.70805 12.23 1.66975 12.1922C1.60641 12.1308 1.55063 12.0693 1.49815 12.0069C1.46128 11.9634 1.42583 11.9199 1.39463 11.876C1.35303 11.8178 1.31757 11.7597 1.28543 11.7015C1.2599 11.6547 1.23721 11.6079 1.21783 11.5611C1.19466 11.5039 1.17623 11.4467 1.16299 11.3895C1.1455 11.3144 1.12612 11.2378 1.12612 11.1617C1.12612 11.1083 1.13226 11.0548 1.14077 11.0019C1.15259 10.9305 1.14597 10.8591 1.12612 10.7915V7.28201C1.18285 7.33354 1.24761 7.38412 1.30906 7.43517C1.3431 7.46354 1.37477 7.4919 1.4107 7.52027C1.55252 7.63183 1.70568 7.74197 1.87161 7.84928C1.90612 7.8715 1.94488 7.89325 1.98081 7.91547C2.11979 8.00197 2.26681 8.08659 2.42139 8.16979C2.47859 8.20052 2.53579 8.23077 2.59488 8.26103C2.76743 8.34896 2.94848 8.43452 3.13899 8.51725C3.17019 8.53096 3.19855 8.54514 3.23023 8.55837C3.45194 8.65245 3.68735 8.74227 3.93223 8.82925C3.99983 8.85336 4.07074 8.87605 4.14023 8.89968C4.33499 8.96539 4.53637 9.02826 4.74485 9.08925C4.82001 9.11099 4.89375 9.13368 4.97081 9.15448C5.24735 9.23106 5.53288 9.30386 5.83259 9.37099C5.87372 9.38045 5.91816 9.38801 5.95975 9.39699C6.22401 9.45467 6.49819 9.50808 6.77994 9.55819C6.87543 9.57521 6.97234 9.59128 7.06972 9.60736C7.33775 9.65132 7.61383 9.6915 7.89699 9.72837C7.96979 9.73783 8.03928 9.7487 8.11303 9.75768C8.46474 9.80023 8.82874 9.83663 9.20266 9.86783C9.29485 9.87539 9.39081 9.88107 9.48441 9.88768C9.78365 9.90943 10.0895 9.92739 10.4024 9.94157C10.5164 9.94677 10.6298 9.95197 10.7461 9.95623C11.1536 9.96994 11.5687 9.97987 11.9988 9.97987C12.429 9.97987 12.8441 9.96994 13.2516 9.95623C13.3674 9.95197 13.4808 9.94677 13.5952 9.94157C13.9082 9.92739 14.214 9.90943 14.5133 9.88768C14.6069 9.88059 14.7024 9.87539 14.795 9.86783C15.169 9.8371 15.533 9.80023 15.8847 9.75768C15.9584 9.7487 16.0279 9.73783 16.1007 9.72837C16.3839 9.6915 16.6595 9.65132 16.928 9.60736C17.0254 9.59128 17.1223 9.57521 17.2178 9.55819C17.4995 9.50808 17.7737 9.45467 18.0379 9.39699C18.0795 9.38801 18.124 9.37997 18.1651 9.37099C18.4648 9.30386 18.7503 9.23059 19.0269 9.15448C19.1039 9.13321 19.1777 9.11099 19.2528 9.08925C19.4613 9.02826 19.6627 8.96539 19.8575 8.89968C19.927 8.87605 19.9979 8.85336 20.0655 8.82925C20.3103 8.74227 20.5462 8.65245 20.7675 8.55837C20.7991 8.54514 20.8275 8.53096 20.8587 8.51725C21.0492 8.43405 21.2303 8.34896 21.4028 8.26103C21.4619 8.23077 21.5196 8.20052 21.5763 8.16979C21.7309 8.08706 21.8779 8.00245 22.0169 7.91547C22.0528 7.89325 22.0916 7.8715 22.1261 7.84928C22.292 7.74197 22.4452 7.6323 22.587 7.52027C22.6224 7.4919 22.6541 7.46354 22.6886 7.43517C22.7501 7.38412 22.8148 7.33354 22.8716 7.28201ZM11.9988 1.9435C18.4067 1.9435 22.8716 3.81172 22.8716 5.48896C22.8716 7.16619 18.4067 9.03441 11.9988 9.03441C5.59103 9.03441 1.12612 7.16619 1.12612 5.48896C1.12612 3.81172 5.59103 1.9435 11.9988 1.9435ZM22.8716 22.6031C22.865 22.6239 22.8602 22.6452 22.8564 22.6669C22.5884 24.3021 18.1613 26.0526 11.9988 26.0526C5.83637 26.0526 1.40928 24.3021 1.14125 22.6669C1.13746 22.6456 1.13226 22.6248 1.12612 22.605V18.6275C1.13935 18.6398 1.1559 18.6516 1.16961 18.6639C1.27266 18.7546 1.37761 18.8449 1.49579 18.9319C3.27656 20.2787 6.83761 21.3253 11.9988 21.3253C17.1383 21.3253 20.6904 20.2872 22.4787 18.9484C22.6215 18.8444 22.7501 18.7371 22.8711 18.6279L22.8716 18.6275V22.6031Z" fill=""/>
    </symbol>
    <symbol id="news" viewBox="0 0 26 27" fill="" xmlns="http://www.w3.org/2000/svg">
		<g clip-path="url(#clip0)">
		<path d="M22.4765 9.02817V3.9959C22.4682 3.80085 22.3633 3.62271 22.197 3.52061C22.0382 3.42295 21.847 3.39272 21.6658 3.43676L10.5668 7.85397H5.08727C4.05423 7.87436 3.11307 8.45191 2.62703 9.36364L2.12381 9.55933C0.849751 10.0009 -0.00364978 11.2023 -0.000920697 12.5507C-0.00894742 13.8943 0.848681 15.0905 2.12381 15.5142L2.45927 15.654C2.71757 16.3226 3.21603 16.8709 3.8571 17.1916L5.33883 22.5594C5.73631 24.0194 7.24213 24.8807 8.70213 24.4832C9.29103 24.3229 9.80955 23.9705 10.1754 23.4819C10.6828 22.7798 10.8471 21.8864 10.6227 21.0497L9.61627 17.3594H10.5668L21.6657 21.8604L21.8614 21.9164C21.9787 21.9182 22.0943 21.8893 22.1969 21.8325C22.3628 21.7435 22.4691 21.5733 22.4764 21.3852V16.0734C24.4219 16.0733 25.999 14.4962 25.9989 12.5507C25.9989 10.6053 24.4219 9.02823 22.4765 9.02817ZM2.34748 14.3959C1.60036 14.0969 1.12769 13.3541 1.17328 12.5507C1.12769 11.7473 1.60036 11.0045 2.34748 10.7055V14.3959ZM9.28081 22.783C8.9729 23.1976 8.48311 23.4373 7.96683 23.426C7.23174 23.4035 6.59699 22.9048 6.40125 22.1959L5.08727 17.3593H8.47005L9.53242 21.3292C9.67759 21.8267 9.58475 22.3633 9.28081 22.783ZM10.1755 16.241H5.08727C4.23933 16.2875 3.51425 15.6378 3.46775 14.7899C3.46566 14.7518 3.46496 14.7136 3.46577 14.6755V10.7055C3.43441 9.77969 4.15954 9.00366 5.0854 8.97225C5.08604 8.97225 5.08663 8.9722 5.08727 8.9722H10.1755V16.241ZM21.3582 20.5465L11.2937 16.5206V8.86041L21.3582 4.83459V20.5465ZM22.4765 14.9551V10.1465C23.8044 10.1465 24.8808 11.223 24.8807 12.5509C24.8806 13.8786 23.8043 14.955 22.4765 14.9551Z" fill=""/>
		</g>
		<defs>
		<clipPath id="clip0">
		<rect width="26" height="26" fill="" transform="translate(-0.000976562 0.998047)"/>
		</clipPath>
		</defs>
    </symbol>
    <symbol id="settings" viewBox="0 0 26 26" fill="" xmlns="http://www.w3.org/2000/svg">
		<path d="M14.2124 25.999H11.7857C10.9656 25.999 10.2734 25.3848 10.1759 24.569L9.91694 22.5367C9.40019 22.3688 8.90186 22.1619 8.42844 21.9203L6.80994 23.178C6.15344 23.6861 5.22936 23.6276 4.65952 23.0415L2.95327 21.3353C2.37152 20.7709 2.31302 19.8468 2.82111 19.1914L4.07886 17.5718C3.83619 17.0984 3.62927 16.6 3.46244 16.0833L1.42577 15.8244C0.613274 15.7247 -0.000976562 15.0324 -0.000976562 14.2124V11.7857C-0.000976562 10.9656 0.613274 10.2734 1.42902 10.1759L3.46136 9.91694C3.62927 9.40019 3.83619 8.90186 4.07777 8.42844L2.82111 6.80994C2.31194 6.15344 2.37152 5.22827 2.95869 4.65844L4.66494 2.95219C5.22936 2.37044 6.15452 2.31302 6.80886 2.82002L8.42736 4.07886C8.90077 3.83727 9.39911 3.63036 9.91694 3.46244L10.1759 1.42577C10.2734 0.613274 10.9656 -0.000976562 11.7857 -0.000976562H14.2124C15.0324 -0.000976562 15.7247 0.613274 15.8222 1.42902L16.0811 3.46136C16.5989 3.62927 17.0973 3.83619 17.5707 4.07777L19.1892 2.82002C19.8468 2.31194 20.7698 2.37044 21.3396 2.95761L23.0459 4.66386C23.6276 5.22827 23.6861 6.15236 23.178 6.80777L21.9203 8.42736C22.1629 8.90077 22.3699 9.39911 22.5367 9.91586L24.5734 10.1748C25.3848 10.2734 25.999 10.9656 25.999 11.7857V14.2124C25.999 15.0324 25.3848 15.7247 24.569 15.8222L22.5367 16.0811C22.3688 16.5979 22.1619 17.0962 21.9203 17.5696L23.178 19.1881C23.6872 19.8446 23.6276 20.7687 23.0404 21.3385L21.3342 23.0448C20.7698 23.6265 19.8446 23.6861 19.1903 23.1769L17.5707 21.9192C17.0973 22.1619 16.5989 22.3688 16.0822 22.5356L15.8233 24.5723C15.7247 25.3848 15.0324 25.999 14.2124 25.999ZM8.37319 20.734C8.46311 20.734 8.55519 20.7568 8.63752 20.8023C9.23444 21.1359 9.88119 21.4046 10.5594 21.5996C10.7674 21.6592 10.9201 21.8369 10.9472 22.0514L11.2505 24.4347C11.283 24.7066 11.5181 24.9157 11.7857 24.9157H14.2124C14.4799 24.9157 14.715 24.7066 14.7464 24.4401L15.0509 22.0524C15.0779 21.8379 15.2307 21.6603 15.4387 21.6007C16.1169 21.4057 16.7636 21.137 17.3605 20.8034C17.5501 20.6972 17.7863 20.7156 17.9564 20.8489L19.8522 22.3222C20.0699 22.4912 20.3754 22.4771 20.5618 22.2854L22.2789 20.5683C22.4749 20.3776 22.4901 20.0721 22.3211 19.8533L20.8478 17.9574C20.7145 17.7863 20.6961 17.5512 20.8023 17.3616C21.1359 16.7647 21.4046 16.1179 21.5996 15.4398C21.6592 15.2318 21.8369 15.079 22.0514 15.0519L24.4347 14.7486C24.7066 14.715 24.9157 14.4799 24.9157 14.2124V11.7857C24.9157 11.5181 24.7066 11.283 24.4401 11.2516L22.0524 10.9472C21.8379 10.9201 21.6603 10.7674 21.6007 10.5594C21.4057 9.88119 21.137 9.23444 20.8034 8.63752C20.6972 8.44794 20.7145 8.21286 20.8489 8.04169L22.3222 6.14586C22.4923 5.92702 22.4771 5.62152 22.2864 5.43736L20.5694 3.72027C20.3798 3.52311 20.0732 3.50794 19.8544 3.67802L17.9585 5.15136C17.7863 5.28461 17.5512 5.30302 17.3616 5.19686C16.7669 4.86319 16.1201 4.59561 15.4398 4.39952C15.2318 4.33994 15.079 4.16227 15.0519 3.94777L14.7486 1.56444C14.715 1.29144 14.4799 1.08236 14.2124 1.08236H11.7857C11.5181 1.08236 11.283 1.29144 11.2516 1.55794L10.9472 3.94561C10.9201 4.16011 10.7674 4.33777 10.5594 4.39844C9.87902 4.59344 9.23227 4.86211 8.63752 5.19469C8.44794 5.30194 8.21286 5.28244 8.04061 5.15027L6.14477 3.67694C5.92594 3.50686 5.62152 3.52202 5.43627 3.71269L3.71919 5.43086C3.52311 5.62152 3.50794 5.92702 3.67694 6.14586L5.15027 8.04169C5.28352 8.21286 5.30194 8.44794 5.19577 8.63752C4.86102 9.23444 4.59344 9.88119 4.39844 10.5594C4.33886 10.7674 4.16119 10.9201 3.94669 10.9472L1.56336 11.2505C1.29144 11.283 1.08236 11.5181 1.08236 11.7857V14.2124C1.08236 14.4799 1.29144 14.715 1.55794 14.7464L3.94561 15.0509C4.16011 15.0779 4.33777 15.2307 4.39736 15.4387C4.59236 16.1169 4.86102 16.7636 5.19469 17.3605C5.30086 17.5501 5.28352 17.7852 5.14919 17.9564L3.67586 19.8522C3.50577 20.071 3.52094 20.3765 3.71161 20.5607L5.42869 22.2778C5.61827 22.4739 5.92269 22.489 6.14369 22.32L8.03952 20.8467C8.13811 20.773 8.25511 20.734 8.37319 20.734Z" fill=""/>
    </symbol>
    <symbol id="teams" viewBox="0 0 30 31" fill="" xmlns="http://www.w3.org/2000/svg">
		<g clip-path="url(#clip0)">
		<path d="M19.938 15.141H10.0607C9.95316 15.141 9.85004 15.0983 9.77401 15.0223C9.69799 14.9463 9.65527 14.8432 9.65527 14.7356V13.4233C9.65635 12.458 10.0404 11.5326 10.7231 10.8501C11.4057 10.1677 12.3313 9.78395 13.2966 9.7832H16.702C17.6671 9.78438 18.5922 10.1683 19.2746 10.8507C19.9569 11.5331 20.3407 12.4583 20.3418 13.4233V14.7356C20.3418 14.8429 20.2993 14.9457 20.2236 15.0217C20.1479 15.0977 20.0452 15.1406 19.938 15.141ZM10.4661 14.3302H19.5326V13.4233C19.5318 12.673 19.2333 11.9536 18.7026 11.4231C18.1719 10.8926 17.4524 10.5944 16.702 10.594H13.2966C12.5465 10.5949 11.8274 10.8932 11.2971 11.4237C10.7667 11.9541 10.4685 12.6733 10.4677 13.4233L10.4661 14.3302Z" fill=""/>
		<path d="M14.9982 9.07071C14.4414 9.07079 13.897 8.90575 13.434 8.59647C12.971 8.28718 12.6102 7.84755 12.397 7.33316C12.1839 6.81876 12.1281 6.25272 12.2367 5.70661C12.3452 5.1605 12.6133 4.65885 13.007 4.26511C13.4007 3.87136 13.9023 3.60321 14.4484 3.49455C14.9945 3.3859 15.5606 3.44162 16.075 3.65468C16.5894 3.86774 17.0291 4.22856 17.3384 4.69152C17.6478 5.15448 17.8129 5.69877 17.8129 6.25557C17.8121 7.00189 17.5154 7.71743 16.9877 8.2452C16.46 8.77296 15.7445 9.06985 14.9982 9.07071ZM14.9982 4.25165C14.6017 4.25157 14.2141 4.36906 13.8845 4.58927C13.5548 4.80948 13.2978 5.1225 13.1461 5.48876C12.9943 5.85502 12.9546 6.25806 13.0319 6.6469C13.1092 7.03574 13.3002 7.39291 13.5805 7.67325C13.8608 7.95358 14.218 8.14448 14.6068 8.22181C14.9957 8.29913 15.3987 8.2594 15.765 8.10765C16.1312 7.9559 16.4443 7.69894 16.6645 7.36926C16.8847 7.03959 17.0022 6.65202 17.0021 6.25557C17.0014 5.72429 16.7901 5.21496 16.4144 4.83929C16.0388 4.46363 15.5294 4.25229 14.9982 4.25165Z" fill=""/>
		<path d="M8.90714 28.5577H1.21498C1.10746 28.5577 1.00434 28.515 0.928311 28.4389C0.852283 28.3629 0.80957 28.2598 0.80957 28.1523V27.1302C0.810536 26.355 1.11893 25.6118 1.66711 25.0636C2.21529 24.5154 2.95851 24.207 3.73376 24.2061H6.38795C7.16327 24.2069 7.90659 24.5153 8.45486 25.0635C9.00313 25.6116 9.31158 26.3549 9.31254 27.1302V28.1523C9.31254 28.2598 9.26983 28.3629 9.1938 28.4389C9.11777 28.515 9.01466 28.5577 8.90714 28.5577ZM1.62038 27.7469H8.50173V27.1302C8.50098 26.5699 8.27803 26.0327 7.88176 25.6365C7.4855 25.2404 6.94829 25.0175 6.38795 25.0169H3.73376C3.17345 25.0175 2.63628 25.2404 2.24009 25.6366C1.84389 26.0328 1.62102 26.5699 1.62038 27.1302V27.7469Z" fill=""/>
		<path d="M5.05978 23.8307C4.60842 23.8307 4.16717 23.697 3.79184 23.4463C3.41651 23.1956 3.12395 22.8392 2.95117 22.4222C2.77839 22.0052 2.73314 21.5464 2.82114 21.1037C2.90915 20.661 3.12646 20.2543 3.44559 19.9351C3.76472 19.6159 4.17134 19.3986 4.61402 19.3105C5.0567 19.2224 5.51556 19.2676 5.93257 19.4403C6.34958 19.613 6.70601 19.9055 6.95678 20.2808C7.20755 20.656 7.3414 21.0973 7.3414 21.5486C7.34076 22.1536 7.10018 22.7336 6.67244 23.1614C6.24471 23.5892 5.66474 23.8299 5.05978 23.8307ZM5.05978 20.0778C4.76876 20.0777 4.48426 20.164 4.24226 20.3256C4.00026 20.4872 3.81163 20.717 3.70022 20.9858C3.58882 21.2547 3.55965 21.5505 3.61641 21.836C3.67316 22.1214 3.81329 22.3836 4.01907 22.5893C4.22484 22.7951 4.48703 22.9352 4.77245 22.992C5.05788 23.0488 5.35372 23.0196 5.62257 22.9082C5.89142 22.7968 6.12118 22.6081 6.28281 22.3661C6.44444 22.1241 6.53067 21.8396 6.53059 21.5486C6.53005 21.1587 6.37492 20.7849 6.09921 20.5092C5.82349 20.2335 5.4497 20.0784 5.05978 20.0778Z" fill=""/>
		<path d="M18.8446 28.5577H11.1525C11.045 28.5577 10.9418 28.515 10.8658 28.4389C10.7898 28.3629 10.7471 28.2598 10.7471 28.1523V27.1302C10.748 26.3549 11.0565 25.6116 11.6048 25.0635C12.153 24.5153 12.8963 24.2069 13.6717 24.2061H16.3254C17.1008 24.2069 17.8441 24.5153 18.3924 25.0635C18.9406 25.6116 19.2491 26.3549 19.25 27.1302V28.1523C19.25 28.2598 19.2073 28.3629 19.1313 28.4389C19.0553 28.515 18.9522 28.5577 18.8446 28.5577ZM11.5579 27.7469H18.4392V27.1302C18.4385 26.5699 18.2155 26.0327 17.8193 25.6365C17.423 25.2404 16.8858 25.0175 16.3254 25.0169H13.6717C13.1113 25.0175 12.5741 25.2404 12.1778 25.6365C11.7816 26.0327 11.5586 26.5699 11.5579 27.1302V27.7469Z" fill=""/>
		<path d="M14.9992 23.8307C14.5479 23.8307 14.1066 23.697 13.7313 23.4463C13.356 23.1956 13.0634 22.8392 12.8906 22.4222C12.7178 22.0052 12.6726 21.5464 12.7606 21.1037C12.8486 20.661 13.0659 20.2543 13.385 19.9351C13.7042 19.6159 14.1108 19.3986 14.5535 19.3105C14.9962 19.2224 15.455 19.2676 15.872 19.4403C16.289 19.613 16.6455 19.9055 16.8962 20.2808C17.147 20.656 17.2809 21.0973 17.2809 21.5486C17.2803 22.1536 17.0398 22.7337 16.612 23.1615C16.1843 23.5894 15.6042 23.83 14.9992 23.8307ZM14.9992 20.0778C14.7082 20.0777 14.4237 20.164 14.1817 20.3256C13.9397 20.4872 13.7511 20.717 13.6397 20.9858C13.5283 21.2547 13.4991 21.5505 13.5559 21.836C13.6126 22.1214 13.7527 22.3836 13.9585 22.5893C14.1643 22.7951 14.4265 22.9352 14.7119 22.992C14.9973 23.0488 15.2932 23.0196 15.562 22.9082C15.8309 22.7968 16.0606 22.6081 16.2223 22.3661C16.3839 22.1241 16.4701 21.8396 16.47 21.5486C16.4695 21.1587 16.3144 20.7849 16.0387 20.5092C15.763 20.2335 15.3892 20.0784 14.9992 20.0778Z" fill=""/>
		<path d="M28.7831 28.5577H21.091C20.9834 28.5577 20.8803 28.515 20.8043 28.4389C20.7283 28.3629 20.6855 28.2598 20.6855 28.1523V27.1302C20.6865 26.3549 20.995 25.6116 21.5432 25.0635C22.0915 24.5153 22.8348 24.2069 23.6101 24.2061H26.2643C27.0396 24.207 27.7828 24.5154 28.331 25.0636C28.8792 25.6118 29.1876 26.355 29.1885 27.1302V28.1523C29.1885 28.2598 29.1458 28.3629 29.0698 28.4389C28.9937 28.515 28.8906 28.5577 28.7831 28.5577ZM21.4964 27.7469H28.3777V27.1302C28.3771 26.5699 28.1542 26.0328 27.758 25.6366C27.3618 25.2404 26.8246 25.0175 26.2643 25.0169H23.6101C23.0498 25.0175 22.5126 25.2404 22.1163 25.6365C21.7201 26.0327 21.4971 26.5699 21.4964 27.1302V27.7469Z" fill=""/>
		<path d="M24.9363 23.8306C24.485 23.8306 24.0438 23.6968 23.6685 23.4461C23.2932 23.1953 23.0007 22.8389 22.828 22.4219C22.6553 22.0049 22.6101 21.5461 22.6981 21.1034C22.7862 20.6608 23.0035 20.2541 23.3227 19.935C23.6418 19.6158 24.0485 19.3985 24.4911 19.3105C24.9338 19.2224 25.3926 19.2676 25.8096 19.4403C26.2266 19.613 26.583 19.9055 26.8338 20.2808C27.0845 20.6561 27.2184 21.0973 27.2184 21.5486C27.2177 22.1537 26.9771 22.7337 26.5493 23.1615C26.1214 23.5894 25.5414 23.83 24.9363 23.8306ZM24.9363 20.0778C24.6453 20.0778 24.3609 20.1641 24.1189 20.3258C23.877 20.4875 23.6884 20.7173 23.5771 20.9861C23.4657 21.255 23.4366 21.5508 23.4934 21.8362C23.5502 22.1216 23.6904 22.3837 23.8962 22.5895C24.102 22.7952 24.3641 22.9353 24.6496 22.992C24.935 23.0487 25.2308 23.0196 25.4996 22.9081C25.7684 22.7967 25.9982 22.6081 26.1598 22.3661C26.3214 22.1241 26.4076 21.8396 26.4075 21.5486C26.407 21.1586 26.2518 20.7848 25.976 20.5091C25.7002 20.2333 25.3263 20.0782 24.9363 20.0778Z" fill=""/>
		<path d="M24.9361 20.0769C24.8286 20.0769 24.7254 20.0342 24.6494 19.9582C24.5734 19.8821 24.5307 19.779 24.5307 19.6715V18.4147C24.5306 18.2171 24.452 18.0275 24.3122 17.8877C24.1724 17.7479 23.9828 17.6693 23.7851 17.6692H6.21162C6.01393 17.6693 5.82436 17.7479 5.68457 17.8877C5.54477 18.0275 5.46619 18.2171 5.46608 18.4147V19.6715C5.46608 19.779 5.42337 19.8821 5.34734 19.9582C5.27132 20.0342 5.1682 20.0769 5.06068 20.0769C4.95316 20.0769 4.85004 20.0342 4.77401 19.9582C4.69799 19.8821 4.65527 19.779 4.65527 19.6715V18.4147C4.6557 18.0021 4.81981 17.6065 5.11159 17.3147C5.40337 17.0229 5.79899 16.8588 6.21162 16.8584H23.7851C24.1978 16.8588 24.5934 17.0229 24.8852 17.3147C25.177 17.6065 25.3411 18.0021 25.3415 18.4147V19.6715C25.3415 19.779 25.2988 19.8821 25.2228 19.9582C25.1467 20.0342 25.0436 20.0769 24.9361 20.0769Z" fill=""/>
		<path d="M14.9982 20.0775C14.8907 20.0775 14.7875 20.0348 14.7115 19.9588C14.6355 19.8827 14.5928 19.7796 14.5928 19.6721V14.7355C14.5928 14.628 14.6355 14.5248 14.7115 14.4488C14.7875 14.3728 14.8907 14.3301 14.9982 14.3301C15.1057 14.3301 15.2088 14.3728 15.2848 14.4488C15.3609 14.5248 15.4036 14.628 15.4036 14.7355V19.6721C15.4036 19.7796 15.3609 19.8827 15.2848 19.9588C15.2088 20.0348 15.1057 20.0775 14.9982 20.0775Z" fill=""/>
		</g>
		<defs>
		<clipPath id="clip0">
		<rect width="30" height="30" fill="" transform="translate(-0.000976562 0.998047)"/>
		</clipPath>
		</defs>
    </symbol>
    <symbol id="token" viewBox="0 0 26 26" fill="" xmlns="http://www.w3.org/2000/svg">
		<g clip-path="url(#clip0)">
		<path d="M18.4144 25.9987C14.7376 25.9987 10.8311 24.859 10.8311 22.7487C10.8311 22.4497 11.0737 22.207 11.3727 22.207C11.6717 22.207 11.9144 22.4497 11.9144 22.7487C11.9144 23.6533 14.3866 24.9154 18.4144 24.9154C22.4422 24.9154 24.9144 23.6533 24.9144 22.7487C24.9144 22.4497 25.1571 22.207 25.4561 22.207C25.7551 22.207 25.9977 22.4497 25.9977 22.7487C25.9977 24.859 22.0912 25.9987 18.4144 25.9987Z" fill=""/>
		<path d="M18.4144 22.7487C14.7376 22.7487 10.8311 21.609 10.8311 19.4987C10.8311 19.1997 11.0737 18.957 11.3727 18.957C11.6717 18.957 11.9144 19.1997 11.9144 19.4987C11.9144 20.4033 14.3866 21.6654 18.4144 21.6654C22.4422 21.6654 24.9144 20.4033 24.9144 19.4987C24.9144 19.1997 25.1571 18.957 25.4561 18.957C25.7551 18.957 25.9977 19.1997 25.9977 19.4987C25.9977 21.609 22.0912 22.7487 18.4144 22.7487Z" fill=""/>
		<path d="M18.4144 19.498C14.7376 19.498 10.8311 18.3584 10.8311 16.248C10.8311 14.1377 14.7376 12.998 18.4144 12.998C22.0912 12.998 25.9977 14.1377 25.9977 16.248C25.9977 18.3584 22.0912 19.498 18.4144 19.498ZM18.4144 14.0814C14.3866 14.0814 11.9144 15.3435 11.9144 16.248C11.9144 17.1526 14.3866 18.4147 18.4144 18.4147C22.4422 18.4147 24.9144 17.1526 24.9144 16.248C24.9144 15.3435 22.4422 14.0814 18.4144 14.0814Z" fill=""/>
		<path d="M25.4567 23.2894C25.1577 23.2894 24.915 23.0467 24.915 22.7477V16.2477C24.915 15.9487 25.1577 15.7061 25.4567 15.7061C25.7557 15.7061 25.9984 15.9487 25.9984 16.2477V22.7477C25.9984 23.0467 25.7557 23.2894 25.4567 23.2894Z" fill=""/>
		<path d="M11.3727 23.2894C11.0737 23.2894 10.8311 23.0467 10.8311 22.7477V16.2477C10.8311 15.9487 11.0737 15.7061 11.3727 15.7061C11.6717 15.7061 11.9144 15.9487 11.9144 16.2477V22.7477C11.9144 23.0467 11.6717 23.2894 11.3727 23.2894Z" fill=""/>
		<path d="M7.58236 12.9987C3.90552 12.9987 -0.000976562 11.859 -0.000976562 9.7487C-0.000976562 9.4497 0.24169 9.20703 0.54069 9.20703C0.83969 9.20703 1.08236 9.4497 1.08236 9.7487C1.08236 10.6533 3.55452 11.9154 7.58236 11.9154C11.6102 11.9154 14.0824 10.6533 14.0824 9.7487C14.0824 9.4497 14.325 9.20703 14.624 9.20703C14.923 9.20703 15.1657 9.4497 15.1657 9.7487C15.1657 11.859 11.2592 12.9987 7.58236 12.9987Z" fill=""/>
		<path d="M7.58236 9.74772C3.90552 9.74772 -0.000976562 8.60805 -0.000976562 6.49772C-0.000976562 6.19872 0.24169 5.95605 0.54069 5.95605C0.83969 5.95605 1.08236 6.19872 1.08236 6.49772C1.08236 7.4023 3.55452 8.66439 7.58236 8.66439C11.6102 8.66439 14.0824 7.4023 14.0824 6.49772C14.0824 6.19872 14.325 5.95605 14.624 5.95605C14.923 5.95605 15.1657 6.19872 15.1657 6.49772C15.1657 8.60805 11.2592 9.74772 7.58236 9.74772Z" fill=""/>
		<path d="M7.58236 19.4977C3.90552 19.4977 -0.000976562 18.358 -0.000976562 16.2477C-0.000976562 15.9487 0.24169 15.7061 0.54069 15.7061C0.83969 15.7061 1.08236 15.9487 1.08236 16.2477C1.08236 17.1523 3.55452 18.4144 7.58236 18.4144C8.17169 18.4144 8.68519 18.3905 9.14994 18.3418C9.44352 18.3093 9.71436 18.526 9.74577 18.8228C9.77719 19.1196 9.56161 19.3872 9.26477 19.4186C8.75994 19.4728 8.20961 19.4977 7.58236 19.4977Z" fill=""/>
		<path d="M7.58236 22.7487C3.90552 22.7487 -0.000976562 21.609 -0.000976562 19.4987C-0.000976562 19.1997 0.24169 18.957 0.54069 18.957C0.83969 18.957 1.08236 19.1997 1.08236 19.4987C1.08236 20.4033 3.55452 21.6654 7.58236 21.6654C8.17169 21.6654 8.68519 21.6415 9.14994 21.5928C9.44352 21.5549 9.71436 21.7769 9.74577 22.0738C9.77719 22.3706 9.56161 22.6382 9.26477 22.6696C8.75994 22.7238 8.20961 22.7487 7.58236 22.7487Z" fill=""/>
		<path d="M7.58236 16.2487C3.90552 16.2487 -0.000976562 15.109 -0.000976562 12.9987C-0.000976562 12.6997 0.24169 12.457 0.54069 12.457C0.83969 12.457 1.08236 12.6997 1.08236 12.9987C1.08236 13.9033 3.55452 15.1654 7.58236 15.1654C8.17169 15.1654 8.68519 15.1415 9.14994 15.0928C9.44352 15.0581 9.71436 15.2759 9.74577 15.5738C9.77719 15.8706 9.56161 16.1382 9.26477 16.1696C8.75994 16.2238 8.20961 16.2487 7.58236 16.2487Z" fill=""/>
		<path d="M7.58236 6.49902C3.90552 6.49902 -0.000976562 5.35936 -0.000976562 3.24902C-0.000976562 1.13869 3.90552 -0.000976562 7.58236 -0.000976562C11.2592 -0.000976562 15.1657 1.13869 15.1657 3.24902C15.1657 5.35936 11.2592 6.49902 7.58236 6.49902ZM7.58236 1.08236C3.55452 1.08236 1.08236 2.34444 1.08236 3.24902C1.08236 4.15361 3.55452 5.41569 7.58236 5.41569C11.6102 5.41569 14.0824 4.15361 14.0824 3.24902C14.0824 2.34444 11.6102 1.08236 7.58236 1.08236Z" fill=""/>
		<path d="M0.54069 20.0404C0.24169 20.0404 -0.000976562 19.7977 -0.000976562 19.4987V3.2487C-0.000976562 2.9497 0.24169 2.70703 0.54069 2.70703C0.83969 2.70703 1.08236 2.9497 1.08236 3.2487V19.4987C1.08236 19.7977 0.83969 20.0404 0.54069 20.0404Z" fill=""/>
		<path d="M14.6227 10.2904C14.3237 10.2904 14.0811 10.0477 14.0811 9.7487V3.2487C14.0811 2.9497 14.3237 2.70703 14.6227 2.70703C14.9217 2.70703 15.1644 2.9497 15.1644 3.2487V9.7487C15.1644 10.0477 14.9217 10.2904 14.6227 10.2904Z" fill=""/>
		</g>
		<defs>
		<clipPath id="clip0">
		<rect width="26" height="26" fill="" transform="translate(-0.000976562 -0.000976562)"/>
		</clipPath>
		</defs>
    </symbol>
    <symbol id="wallet" viewBox="0 0 26 27" fill="" xmlns="http://www.w3.org/2000/svg">
		<g clip-path="url(#clip0)">
		<path d="M21.124 23.748H2.70736C1.21452 23.748 -0.000976562 22.5325 -0.000976562 21.0397V6.95638C-0.000976562 5.46355 1.21452 4.24805 2.70736 4.24805H21.124C22.6169 4.24805 23.8324 5.46355 23.8324 6.95638V11.2897C23.8324 11.5887 23.5897 11.8314 23.2907 11.8314C22.9917 11.8314 22.749 11.5887 22.749 11.2897V6.95638C22.749 6.06046 22.0199 5.33138 21.124 5.33138H2.70736C1.81144 5.33138 1.08236 6.06046 1.08236 6.95638V21.0397C1.08236 21.9356 1.81144 22.6647 2.70736 22.6647H21.124C22.0199 22.6647 22.749 21.9356 22.749 21.0397V17.7897C22.749 17.4907 22.9917 17.248 23.2907 17.248C23.5897 17.248 23.8324 17.4907 23.8324 17.7897V21.0397C23.8324 22.5325 22.6169 23.748 21.124 23.748Z" fill=""/>
		<path d="M24.3727 18.3314H17.8727C15.7819 18.3314 14.0811 16.6305 14.0811 14.5397C14.0811 12.4489 15.7819 10.748 17.8727 10.748H24.3727C25.2686 10.748 25.9977 11.4771 25.9977 12.373V16.7064C25.9977 17.6023 25.2686 18.3314 24.3727 18.3314ZM17.8727 11.8314C16.3799 11.8314 15.1644 13.0469 15.1644 14.5397C15.1644 16.0325 16.3799 17.248 17.8727 17.248H24.3727C24.6717 17.248 24.9144 17.0054 24.9144 16.7064V12.373C24.9144 12.074 24.6717 11.8314 24.3727 11.8314H17.8727Z" fill=""/>
		<path d="M17.874 16.165C16.9781 16.165 16.249 15.436 16.249 14.54C16.249 13.6441 16.9781 12.915 17.874 12.915C18.7699 12.915 19.499 13.6441 19.499 14.54C19.499 15.436 18.7699 16.165 17.874 16.165ZM17.874 13.9984C17.575 13.9984 17.3324 14.241 17.3324 14.54C17.3324 14.839 17.575 15.0817 17.874 15.0817C18.173 15.0817 18.4157 14.839 18.4157 14.54C18.4157 14.241 18.173 13.9984 17.874 13.9984Z" fill=""/>
		</g>
		<defs>
		<clipPath id="clip0">
		<rect width="26" height="26" fill="" transform="translate(-0.000976562 0.998047)"/>
		</clipPath>
		</defs>
    </symbol>
    <symbol id="copy" viewBox="0 0 21 21" fill="" xmlns="http://www.w3.org/2000/svg">
		<g clip-path="url(#clip0)">
		<path d="M17.9385 21H7.43848C6.23273 21 5.25098 20.0191 5.25098 18.8125V5.6875C5.25098 4.48088 6.23273 3.5 7.43848 3.5H17.9385C19.1442 3.5 20.126 4.48088 20.126 5.6875V18.8125C20.126 20.0191 19.1442 21 17.9385 21ZM7.43848 4.375C6.71485 4.375 6.12598 4.96387 6.12598 5.6875V18.8125C6.12598 19.5361 6.71485 20.125 7.43848 20.125H17.9385C18.6621 20.125 19.251 19.5361 19.251 18.8125V5.6875C19.251 4.96387 18.6621 4.375 17.9385 4.375H7.43848Z" fill=""/>
		<path d="M3.93945 18.376H3.06445C1.8587 18.376 0.876953 17.3951 0.876953 16.1885V2.18848C0.876953 0.981852 1.8587 0.000976562 3.06445 0.000976562H13.5645C14.7702 0.000976562 15.752 0.981852 15.752 2.18848C15.752 2.42998 15.556 2.62598 15.3145 2.62598C15.073 2.62598 14.877 2.42998 14.877 2.18848C14.877 1.46485 14.2881 0.875977 13.5645 0.875977H3.06445C2.34083 0.875977 1.75195 1.46485 1.75195 2.18848V16.1885C1.75195 16.9121 2.34083 17.501 3.06445 17.501H3.93945C4.18095 17.501 4.37695 17.697 4.37695 17.9385C4.37695 18.18 4.18095 18.376 3.93945 18.376Z" fill=""/>
		<path d="M16.1885 14.875H9.18848C8.94698 14.875 8.75098 14.679 8.75098 14.4375C8.75098 14.196 8.94698 14 9.18848 14H16.1885C16.43 14 16.626 14.196 16.626 14.4375C16.626 14.679 16.43 14.875 16.1885 14.875Z" fill=""/>
		<path d="M16.1885 18.375H9.18848C8.94698 18.375 8.75098 18.179 8.75098 17.9375C8.75098 17.696 8.94698 17.5 9.18848 17.5H16.1885C16.43 17.5 16.626 17.696 16.626 17.9375C16.626 18.179 16.43 18.375 16.1885 18.375Z" fill=""/>
		<path d="M16.1885 11.375H9.18848C8.94698 11.375 8.75098 11.179 8.75098 10.9375C8.75098 10.696 8.94698 10.5 9.18848 10.5H16.1885C16.43 10.5 16.626 10.696 16.626 10.9375C16.626 11.179 16.43 11.375 16.1885 11.375Z" fill=""/>
		<path d="M16.1885 7.875H9.18848C8.94698 7.875 8.75098 7.679 8.75098 7.4375C8.75098 7.196 8.94698 7 9.18848 7H16.1885C16.43 7 16.626 7.196 16.626 7.4375C16.626 7.679 16.43 7.875 16.1885 7.875Z" fill=""/>
		</g>
		<defs>
		<clipPath id="clip0">
		<rect width="21" height="21" fill="" transform="translate(0 0.000976562)"/>
		</clipPath>
		</defs>
    </symbol>
    <symbol id="career" viewBox="0 0 20 20" fill="" xmlns="http://www.w3.org/2000/svg">
		<g clip-path="url(#clip0)">
		<path d="M4.47642 19.5956C4.2573 19.5956 4.03971 19.5272 3.854 19.3929C3.50808 19.1422 3.34648 18.7113 3.44063 18.2955L4.72729 12.6278L0.363771 8.80109C0.0430227 8.52108 -0.0795085 8.07765 0.0521782 7.67191C0.183865 7.26693 0.54215 6.98021 0.966356 6.94099L6.73982 6.41684L9.02244 1.07506C9.19075 0.682593 9.57406 0.429138 9.99994 0.429138C10.4258 0.429138 10.8091 0.682593 10.9774 1.07414L13.2601 6.41684L19.0326 6.94099C19.4577 6.97929 19.816 7.26693 19.9477 7.67191C20.0794 8.07689 19.9576 8.52108 19.6369 8.80109L15.2734 12.627L16.56 18.2946C16.6543 18.7113 16.4926 19.1422 16.1468 19.3922C15.8018 19.6421 15.3417 19.6614 14.9784 19.443L9.99994 16.4679L5.02148 19.4447C4.85317 19.5446 4.66564 19.5956 4.47642 19.5956V19.5956ZM9.99994 15.1863C10.1892 15.1863 10.3765 15.2371 10.545 15.3371L15.2435 18.1472L14.0291 12.7978C13.9425 12.4171 14.0717 12.0196 14.3659 11.762L18.486 8.14861L13.035 7.6536C12.6425 7.61774 12.305 7.371 12.1516 7.00935L9.99994 1.96833L7.84565 7.01012C7.69398 7.36932 7.35644 7.61606 6.96489 7.65192L1.51309 8.14693L5.63307 11.7603C5.92818 12.0186 6.05728 12.4154 5.96984 12.797L4.75643 18.1463L9.45489 15.3371C9.62319 15.2371 9.81073 15.1863 9.99994 15.1863V15.1863ZM6.69572 6.52015C6.69572 6.52015 6.69572 6.52106 6.6948 6.52182L6.69572 6.52015ZM13.3025 6.5177L13.3034 6.51938C13.3034 6.51847 13.3034 6.51847 13.3025 6.5177Z" fill=""/>
		</g>
		<defs>
		<clipPath id="clip0">
		<rect width="20" height="20" fill="white"/>
		</clipPath>
		</defs>
    </symbol>
</svg>

