<svg width="178" height="43" viewBox="0 0 178 43" fill="none" xmlns="http://www.w3.org/2000/svg">
<path d="M62.0368 25.2517H56.6051L55.5732 27.7689H52.7812L58.0065 16.062H60.6788L65.915 27.7689H63.0687L62.0368 25.2517ZM61.1786 23.2011L59.2992 18.7202L57.4633 23.2011H61.1786Z" fill="#F4C153"/>
<path d="M72.3356 18.2428V21.3241H77.7672V23.4941H72.3356V27.758H69.6523V16.062H78.5059V18.232L72.3356 18.2428Z" fill="#F4C153"/>
<path d="M85.5674 18.2428V21.3241H90.999V23.4941H85.5674V27.758H82.8516V16.062H91.7051V18.232L85.5674 18.2428Z" fill="#F4C153"/>
<path d="M96.0508 16.062H98.7666V25.5555H104.644V27.7255H96.0508V16.062Z" fill="#F4C153"/>
<path d="M109.814 26.575C109.331 26.0402 108.959 25.4146 108.72 24.7346C108.481 24.0547 108.381 23.3341 108.424 22.6148V16.105H111.129V22.6148C111.129 24.7088 112.009 25.7504 113.747 25.7504C114.105 25.775 114.465 25.7196 114.799 25.5882C115.134 25.4569 115.435 25.2528 115.68 24.9909C116.185 24.3063 116.424 23.4622 116.354 22.6148V16.105H119.048V22.6148C119.014 23.6649 118.681 24.6835 118.088 25.5516C117.495 26.4196 116.667 27.1011 115.701 27.5165C114.735 27.9319 113.67 28.064 112.632 27.8972C111.593 27.7305 110.623 27.2719 109.836 26.575H109.814Z" fill="#F4C153"/>
<path d="M133.286 25.5881V27.758H124.215V16.062H133.068V18.232H126.909V20.7816H132.341V22.8865H126.909V25.5881H133.286Z" fill="#F4C153"/>
<path d="M148.701 16.062V27.7689H146.528L140.684 20.6623V27.7689H137.957V16.062H140.195L146.018 23.1686V16.062H148.701Z" fill="#F4C153"/>
<path d="M156.353 27.1828C155.413 26.6801 154.627 25.9296 154.083 25.0128C153.542 24.062 153.258 22.9871 153.258 21.8935C153.258 20.7999 153.542 19.7251 154.083 18.7742C154.628 17.8582 155.413 17.1079 156.353 16.6043C157.36 16.0832 158.479 15.8186 159.612 15.8339C160.556 15.8182 161.492 15.9993 162.361 16.3656C163.165 16.7082 163.876 17.2361 164.436 17.9063L162.687 19.512C162.333 19.0745 161.884 18.7231 161.374 18.4844C160.864 18.2456 160.306 18.1259 159.743 18.1341C159.068 18.1244 158.402 18.2888 157.809 18.6115C157.245 18.9198 156.782 19.3829 156.473 19.946C156.159 20.5434 155.995 21.208 155.995 21.8827C155.995 22.5574 156.159 23.222 156.473 23.8194C156.782 24.3825 157.245 24.8455 157.809 25.1539C158.403 25.4728 159.069 25.6335 159.743 25.6204C160.306 25.6287 160.864 25.5089 161.374 25.2702C161.884 25.0315 162.333 24.68 162.687 24.2425L164.436 25.8483C163.876 26.5214 163.165 27.053 162.361 27.3998C161.484 27.766 160.541 27.947 159.591 27.9314C158.466 27.9563 157.353 27.6989 156.353 27.1828Z" fill="#F4C153"/>
<path d="M177.826 25.5881V27.758H168.766V16.062H177.608V18.232H171.46V20.7816H176.891V22.8865H171.46V25.5881H177.826Z" fill="#F4C153"/>
<path fill-rule="evenodd" clip-rule="evenodd" d="M29.1686 4.18079C29.1452 4.45833 29.0599 4.72711 28.9189 4.96742C28.7779 5.20773 28.5849 5.41347 28.3539 5.56956C26.3985 7.13192 22.5204 6.89323 20.0218 4.89688C18.2185 3.62746 17.8492 2.09764 18.7834 1.03437C20.8148 -1.35258 29.3207 0.741421 29.1686 4.18079ZM0.7505 18.611C0.996929 18.1554 1.35625 17.7705 1.79412 17.4932C2.23199 17.216 2.73375 17.0555 3.25144 17.0272C3.76913 16.9989 4.28544 17.1037 4.75099 17.3316C5.21654 17.5595 5.61578 17.9029 5.91052 18.3289C6.75939 19.365 7.23037 20.6585 7.24616 21.9971C7.26195 23.3358 6.82162 24.6401 5.99743 25.6958C4.52003 27.4861 2.24962 27.1606 0.880857 25.1859C0.32596 24.183 0.024098 23.0602 0.00138422 21.9145C-0.0213295 20.7689 0.235791 19.635 0.7505 18.611ZM27.9737 18.8605C28.6809 19.5874 29.1212 20.5319 29.223 21.5404C29.4619 23.9382 28.8753 25.3378 30.6895 27.2799C32.8621 29.7211 33.4379 28.1913 33.9484 25.9237C34.8313 22.4023 34.561 18.691 33.1772 15.3343C32.7752 14.4555 31.9062 13.3597 31.5803 12.6436C31.2219 12.0523 31.049 11.3673 31.0838 10.677C31.1187 9.98665 31.3597 9.32255 31.7758 8.77024C32.7426 7.79376 34.5242 8.31455 35.8386 9.85521C36.6266 10.8159 37.0904 12.0007 37.1639 13.2403C36.9936 14.1061 36.7276 14.9503 36.3709 15.7575C35.9058 17.529 35.6614 19.351 35.6431 21.1824C35.4795 23.4395 35.6404 25.7085 36.1211 27.92C36.3709 29.081 36.6208 29.005 36.7837 29.8296C36.8465 31.2053 36.3713 32.5515 35.4584 33.5836C35.2695 33.7995 35.0662 34.0025 34.8501 34.1912C32.6774 35.8838 30.2767 35.1677 31.048 32.2816C31.1613 31.5786 31.0996 30.8586 30.8685 30.185C30.6374 29.5114 30.2439 28.905 29.7227 28.4191C28.0063 26.6072 26.8439 26.7374 24.5192 26.5855C23.4815 26.5267 22.5023 26.0861 21.7708 25.3487C21.0293 24.6386 20.5636 23.6892 20.4563 22.6688C20.1739 20.3144 20.8691 18.828 18.5553 16.5278C15.7091 13.7286 15.0139 14.9871 14.3186 17.8732C13.6145 20.8049 13.6743 23.8679 14.4925 26.77C15.242 29.298 15.8504 29.6669 16.9801 31.3486C17.4909 32.0214 17.7268 32.8628 17.6401 33.7028C17.5534 34.5427 17.1505 35.3184 16.513 35.8729C14.9813 37.1315 12.5479 36.7843 10.8967 35.3955C10.2842 34.9074 9.83965 34.2403 9.6254 33.4874C9.41114 32.7345 9.43785 31.9336 9.70178 31.1967C10.2993 29.7862 10.951 29.7428 11.6789 27.3342C12.7702 23.4965 12.6104 19.4116 11.2226 15.6707C10.7338 14.4447 9.843 13.5007 9.50624 12.6327C9.237 11.8648 9.20381 11.0341 9.41094 10.2472C9.61807 9.46031 10.056 8.75326 10.6686 8.2169C11.4291 7.48364 12.4235 7.04062 13.4779 6.96526C14.5323 6.8899 15.5796 7.18699 16.437 7.80461C18.6965 9.74671 17.3495 13.0993 19.8915 15.3994C20.9132 16.3901 22.193 17.0743 23.5849 17.3741C25.3013 17.7104 26.518 17.3741 27.9737 18.8605ZM8.76754 2.58588C10.4187 1.99999 11.5377 2.42313 11.1249 3.67085C10.7754 4.60466 10.1928 5.43375 9.43228 6.07939C8.67176 6.72502 7.75862 7.16577 6.77958 7.35977C5.04146 7.90226 4.28104 7.05598 4.93283 5.68891C5.94813 4.37242 7.26259 3.3162 8.76754 2.60758V2.58588ZM10.636 38.4443C11.0597 39.6486 10.0494 39.985 8.46337 39.3665C7.03592 38.6045 5.76459 37.5814 4.71557 36.3503C4.00946 35.07 4.71557 34.3105 6.36678 34.8096C7.31648 35.0401 8.19822 35.4914 8.94013 36.1268C9.68204 36.7622 10.2631 37.5637 10.636 38.466V38.4443ZM39.9667 25.7067C38.196 26.0105 38.7934 18.177 40.1187 17.7972C41.4441 17.4175 41.1725 25.5223 39.9558 25.7284L39.9667 25.7067ZM34.3721 5.43936C36.098 6.70252 37.4342 8.42424 38.2285 10.4085C38.2285 10.5387 38.1308 10.4845 37.8157 10.2024C36.2949 9.24763 33.7855 5.20067 34.3721 5.43936ZM20.0001 38.4877C22.4878 36.7843 26.5941 36.8494 28.0606 37.7499C28.2669 37.8494 28.4425 38.0028 28.5687 38.1938C28.6949 38.3848 28.7671 38.6063 28.7776 38.8349C28.7776 41.5582 21.0321 43.1748 19.0007 41.8186C17.9035 41.0374 18.1751 39.7463 20.0001 38.4877Z" fill="url(#paint0_linear)"/>
<defs>
<linearGradient id="paint0_linear" x1="1.53265" y1="27.9417" x2="39.4337" y2="13.752" gradientUnits="userSpaceOnUse">
<stop stop-color="#E2C466"/>
<stop offset="0.01" stop-color="#DCBE62"/>
<stop offset="0.09" stop-color="#B79349"/>
<stop offset="0.16" stop-color="#A07939"/>
<stop offset="0.19" stop-color="#976F33"/>
<stop offset="0.23" stop-color="#9B7436"/>
<stop offset="0.27" stop-color="#A7813E"/>
<stop offset="0.31" stop-color="#BC984B"/>
<stop offset="0.34" stop-color="#D5B55C"/>
<stop offset="0.46" stop-color="#F6F1B7"/>
<stop offset="0.58" stop-color="#D5B55C"/>
<stop offset="0.59" stop-color="#CDAD57"/>
<stop offset="0.62" stop-color="#AC8A44"/>
<stop offset="0.66" stop-color="#947136"/>
<stop offset="0.69" stop-color="#86622D"/>
<stop offset="0.72" stop-color="#815D2A"/>
<stop offset="0.78" stop-color="#8F6B32"/>
<stop offset="0.9" stop-color="#B39148"/>
<stop offset="1" stop-color="#D5B55C"/>
</linearGradient>
</defs>
</svg>
