<svg width="32" height="32" viewBox="0 0 32 32" fill="#ffffff" xmlns="http://www.w3.org/2000/svg">
<g opacity="0.2">
<path d="M16 0C7.17776 0 0 7.17776 0 16C0 24.8222 7.17776 31.9999 16 31.9999C24.8222 31.9999 31.9999 24.8222 31.9999 16C31.9999 7.17776 24.8222 0 16 0ZM16 30.6087C7.94432 30.6087 1.39128 24.0556 1.39128 16C1.39128 7.94432 7.94432 1.39128 16 1.39128C24.0556 1.39128 30.6087 7.94432 30.6087 16C30.6087 24.0556 24.0556 30.6087 16 30.6087Z" fill="#ffffff"/>
<path d="M15.9999 6.95654C13.3148 6.95654 11.1304 9.14087 11.1304 11.8261V13.2174C11.1304 13.6014 11.442 13.9131 11.826 13.9131C12.21 13.9131 12.5217 13.6014 12.5217 13.2174V11.8261C12.5217 9.90887 14.0814 8.34782 15.9999 8.34782C17.9186 8.34782 19.4782 9.90887 19.4782 11.8261V12.8793C19.4782 13.8087 19.1164 14.6824 18.4584 15.3405L16.7304 17.0685C15.8108 17.9896 15.3043 19.2111 15.3043 20.512V21.5652C15.3043 21.9492 15.616 22.2608 15.9999 22.2608C16.3839 22.2608 16.6956 21.9492 16.6956 21.5652V20.512C16.6956 19.5826 17.0574 18.7089 17.7154 18.0508L19.4434 16.3228C20.3631 15.4017 20.8695 14.1801 20.8695 12.8793V11.8261C20.8695 9.14087 18.6852 6.95654 15.9999 6.95654Z" fill="#ffffff"/>
<path d="M15.9999 23.6523C15.2319 23.6523 14.6086 24.277 14.6086 25.0436C14.6086 25.8103 15.2319 26.4349 15.9999 26.4349C16.7679 26.4349 17.3912 25.8102 17.3912 25.0436C17.3913 24.277 16.7679 23.6523 15.9999 23.6523Z" fill="#ffffff"/>
</g>
</svg>
