<svg width="30" height="30" viewBox="0 0 30 30" fill="none" xmlns="http://www.w3.org/2000/svg">
<circle cx="15" cy="15" r="15" fill="#5CBA71"/>
<g clip-path="url(#clip0)">
<path d="M15.7962 13.8753V9.87577C16.6517 10.0201 17.4585 10.3712 18.1482 10.8984C18.2857 10.9927 18.447 11.0438 18.614 11.0461C19.1492 11.0461 19.5855 10.6154 19.5912 10.0803C19.5923 9.85078 19.5025 9.63035 19.3412 9.46673C18.3447 8.61341 17.0949 8.11007 15.7848 8.03508V6.69431C15.7848 6.31139 15.4746 6.0012 15.0917 6.0012C15.0837 6.00008 15.0758 6.00008 15.0678 6.00008C14.6792 5.99438 14.3588 6.3046 14.3531 6.69431V7.98962C11.7966 8.17142 10.0582 9.75079 10.0582 11.8528C10.0582 14.432 12.2511 15.1479 14.3531 15.716V20.2609C13.2441 20.1121 12.1988 19.6519 11.3421 18.9315C11.1808 18.8032 10.9808 18.7316 10.774 18.727C10.2502 18.7634 9.84681 19.202 9.8536 19.7269C9.85247 19.9564 9.94223 20.1769 10.1036 20.3405C11.2773 21.3972 12.7862 22.0051 14.3644 22.0562V23.306C14.3644 23.314 14.3656 23.322 14.3656 23.3299C14.3837 23.7185 14.7144 24.0185 15.103 23.9992C15.4859 23.9992 15.7961 23.689 15.7961 23.306V22.0335C18.898 21.829 20.1478 19.9428 20.1478 17.943C20.1479 15.2615 17.8982 14.4434 15.7962 13.8753ZM14.3645 13.5117C13.126 13.1481 12.1602 12.7732 12.1602 11.7165C12.1602 10.6598 13.0351 9.89849 14.3645 9.79625V13.5117ZM15.7962 20.2836V16.1478C17.0801 16.5114 18.08 16.9999 18.0686 18.193C18.0686 19.0565 17.4778 20.0791 15.7962 20.2836Z" fill="white"/>
</g>
<defs>
<clipPath id="clip0">
<rect width="18" height="18" fill="white" transform="translate(6 6)"/>
</clipPath>
</defs>
</svg>
