<svg width="30" height="30" viewBox="0 0 30 30" fill="none" xmlns="http://www.w3.org/2000/svg">
<circle cx="15" cy="15" r="15" fill="#F4C153"/>
<path fill-rule="evenodd" clip-rule="evenodd" d="M19.095 7.77443C19.0853 7.89255 19.05 8.00693 18.9915 8.1092C18.933 8.21147 18.853 8.29902 18.7572 8.36545C17.9464 9.03034 16.3383 8.92876 15.3022 8.07918C14.5545 7.53895 14.4013 6.88791 14.7887 6.43542C15.6311 5.4196 19.1581 6.31075 19.095 7.77443ZM7.3112 13.9155C7.41339 13.7216 7.56238 13.5578 7.74395 13.4398C7.92552 13.3218 8.13358 13.2535 8.34824 13.2415C8.56291 13.2294 8.777 13.274 8.97005 13.371C9.16309 13.468 9.32864 13.6141 9.45086 13.7954C9.80285 14.2364 9.99814 14.7868 10.0047 15.3565C10.0112 15.9262 9.82865 16.4813 9.48689 16.9306C8.87428 17.6924 7.93283 17.5539 7.36526 16.7136C7.13516 16.2868 7.00999 15.8089 7.00057 15.3213C6.99116 14.8338 7.09777 14.3513 7.3112 13.9155ZM18.5996 14.0217C18.8928 14.331 19.0754 14.733 19.1176 15.1621C19.2167 16.1826 18.9734 16.7782 19.7257 17.6047C20.6266 18.6436 20.8654 17.9926 21.077 17.0275C21.4431 15.5289 21.3311 13.9495 20.7573 12.521C20.5906 12.147 20.2302 11.6807 20.0951 11.3759C19.9465 11.1243 19.8748 10.8328 19.8892 10.539C19.9037 10.2452 20.0036 9.96261 20.1762 9.72756C20.577 9.312 21.3158 9.53363 21.8608 10.1893C22.1876 10.5981 22.3799 11.1023 22.4104 11.6299C22.3398 11.9983 22.2295 12.3576 22.0816 12.7011C21.8887 13.455 21.7874 14.2304 21.7798 15.0098C21.7119 15.9703 21.7786 16.936 21.978 17.8771C22.0816 18.3712 22.1852 18.3388 22.2527 18.6898C22.2788 19.2752 22.0817 19.8481 21.7032 20.2874C21.6248 20.3792 21.5405 20.4656 21.4509 20.5459C20.55 21.2662 19.5545 20.9615 19.8744 19.7333C19.9213 19.4341 19.8958 19.1277 19.7999 18.841C19.7041 18.5544 19.5409 18.2963 19.3248 18.0895C18.6131 17.3184 18.1311 17.3738 17.1671 17.3092C16.7368 17.2842 16.3308 17.0967 16.0275 16.7828C15.72 16.4806 15.5269 16.0766 15.4824 15.6424C15.3653 14.6404 15.6536 14.0078 14.6941 13.0289C13.5139 11.8377 13.2257 12.3733 12.9373 13.6015C12.6454 14.8491 12.6702 16.1527 13.0095 17.3877C13.3202 18.4635 13.5725 18.6205 14.041 19.3362C14.2528 19.6225 14.3506 19.9806 14.3146 20.3381C14.2787 20.6955 14.1116 21.0256 13.8473 21.2616C13.2121 21.7972 12.2031 21.6495 11.5184 21.0584C11.2644 20.8507 11.0801 20.5668 10.9913 20.2464C10.9024 19.926 10.9135 19.5852 11.0229 19.2716C11.2707 18.6713 11.5409 18.6528 11.8428 17.6278C12.2953 15.9946 12.229 14.2562 11.6536 12.6642C11.4509 12.1424 11.0815 11.7407 10.9419 11.3713C10.8302 11.0445 10.8165 10.691 10.9023 10.3561C10.9882 10.0212 11.1698 9.72034 11.4238 9.49208C11.7392 9.18002 12.1515 8.99149 12.5887 8.95942C13.026 8.92735 13.4602 9.05378 13.8158 9.31662C14.7527 10.1431 14.1941 11.5699 15.2482 12.5487C15.6719 12.9703 16.2025 13.2615 16.7797 13.3891C17.4914 13.5322 17.996 13.3891 18.5996 14.0217ZM10.6355 7.09569C11.3202 6.84635 11.7842 7.02643 11.6131 7.55742C11.4681 7.95482 11.2265 8.30766 10.9112 8.58242C10.5958 8.85718 10.2172 9.04475 9.81122 9.12731C9.09049 9.35818 8.77518 8.99803 9.04545 8.41624C9.46645 7.85599 10.0115 7.40649 10.6355 7.10493V7.09569ZM11.4103 22.3559C11.586 22.8684 11.1671 23.0116 10.5094 22.7484C9.91751 22.4241 9.39034 21.9887 8.95536 21.4648C8.66256 20.9199 8.95536 20.5967 9.64005 20.8091C10.0339 20.9072 10.3995 21.0993 10.7071 21.3697C11.0148 21.6401 11.2557 21.9812 11.4103 22.3652V22.3559ZM23.5726 16.9352C22.8384 17.0645 23.0861 13.7308 23.6356 13.5692C24.1852 13.4076 24.0726 16.8567 23.5681 16.9444L23.5726 16.9352ZM21.2527 8.31004C21.9684 8.8476 22.5225 9.58031 22.8518 10.4248C22.8518 10.4802 22.8113 10.4571 22.6807 10.337C22.05 9.93072 21.0095 8.20846 21.2527 8.31004ZM15.2932 22.3744C16.3248 21.6495 18.0275 21.6772 18.6356 22.0604C18.7212 22.1027 18.794 22.168 18.8463 22.2493C18.8986 22.3306 18.9286 22.4249 18.9329 22.5221C18.9329 23.6811 15.7212 24.3691 14.8788 23.7919C14.4239 23.4595 14.5365 22.91 15.2932 22.3744Z" fill="#333333"/>
</svg>
